<svg width="19" height="14" viewBox="0 0 19 14" fill="none" xmlns="http://www.w3.org/2000/svg">
<path d="M10.2334 7.6212C10.017 7.76728 9.76152 7.84536 9.50004 7.84536C9.23856 7.84536 8.98309 7.76728 8.76664 7.6212L0.0266435 1.65039C0.00821622 1.73491 -0.000705378 1.8212 4.35047e-05 1.90769V12.2298C0.00104602 12.5717 0.137889 12.8993 0.380682 13.1411C0.623475 13.3829 0.952484 13.5191 1.29584 13.5201H17.7042C18.0476 13.5191 18.3766 13.3829 18.6194 13.1411C18.8622 12.8993 18.999 12.5717 19 12.2298V1.90769C19.0008 1.8212 18.9919 1.73491 18.9734 1.65039L10.2334 7.6212Z" fill="white"/>
<path d="M9.257 6.29243C9.32896 6.34042 9.4136 6.36604 9.5002 6.36604C9.58681 6.36604 9.67145 6.34042 9.7434 6.29243L18.5214 0.295135C18.2921 0.104652 18.003 0.000220177 17.7044 0H1.296C0.997389 0.000220177 0.708297 0.104652 0.479004 0.295135L9.257 6.29243Z" fill="white"/>
</svg>
