<svg width="22" height="22" viewBox="0 0 22 22" fill="none" xmlns="http://www.w3.org/2000/svg">
<path d="M11.3309 2.73262C14.1803 2.73262 14.5123 2.73262 15.6396 2.79194C16.3156 2.79426 16.9856 2.91259 17.6176 3.14125C18.0813 3.30092 18.5002 3.56028 18.8417 3.89919C19.1951 4.22642 19.4669 4.62508 19.6371 5.06576C19.8709 5.66962 19.9949 6.30709 20.0036 6.95072C20.0451 8.01842 20.0451 8.34137 20.0451 11.0502C20.0451 13.759 20.0451 14.0819 19.9829 15.1562C19.9733 15.7998 19.8494 16.4371 19.6163 17.0412C19.4399 17.4788 19.1689 17.8763 18.821 18.2078C18.4732 18.5393 18.0561 18.7975 17.5968 18.9657C16.963 19.1878 16.2942 19.3059 15.6188 19.315C14.5123 19.3545 14.1803 19.3545 11.3309 19.3545C8.48148 19.3545 8.14951 19.3545 7.02911 19.2952C6.35372 19.2869 5.68478 19.1688 5.05112 18.9459C4.58869 18.7838 4.17036 18.5247 3.82698 18.188C3.47398 17.8682 3.20199 17.476 3.03163 17.0412C2.79168 16.4389 2.66752 15.8004 2.66508 15.1562C2.60975 14.0819 2.60284 13.7656 2.60284 11.0502C2.60284 8.33478 2.60284 8.01842 2.66508 6.95072C2.66676 6.30645 2.79095 5.66781 3.03163 5.06576C3.19918 4.62384 3.47134 4.22465 3.82698 3.89919C4.1685 3.56028 4.58739 3.30092 5.05112 3.14125C5.68289 2.91189 6.35305 2.79354 7.02911 2.79194C8.14951 2.73921 8.4884 2.73262 11.3309 2.73262ZM11.3309 0.900391C8.43998 0.900391 8.08035 0.900391 6.9392 0.959708C6.05525 0.979164 5.18095 1.13956 4.3526 1.43424C3.64215 1.68779 2.99964 2.08848 2.47143 2.6074C1.9269 3.11076 1.50643 3.72306 1.24038 4.40009C0.93115 5.18948 0.762837 6.02266 0.74242 6.86503C0.680176 7.95251 0.680176 8.29523 0.680176 11.0502C0.680176 13.8051 0.680176 14.1544 0.74242 15.2353C0.762837 16.0777 0.93115 16.9109 1.24038 17.7003C1.50615 18.3793 1.92659 18.9938 2.47143 19.4995C3.00152 20.0163 3.64349 20.4166 4.3526 20.6727C5.18053 20.9679 6.05532 21.1262 6.9392 21.1406C8.08035 21.1934 8.43998 21.2065 11.3309 21.2065C14.2218 21.2065 14.5884 21.2065 15.7226 21.1406C16.6065 21.1262 17.4812 20.9679 18.3092 20.6727C19.0171 20.4107 19.6601 20.0111 20.1971 19.4993C20.7341 18.9876 21.1534 18.3749 21.4283 17.7003C21.7381 16.9113 21.9042 16.0776 21.9194 15.2353C21.9747 14.1544 21.9885 13.8117 21.9885 11.0502C21.9885 8.28864 21.9885 7.95251 21.9194 6.86503C21.9042 6.02273 21.7381 5.18908 21.4283 4.40009C21.1596 3.72433 20.7395 3.11256 20.1973 2.6074C19.6666 2.08818 19.0218 1.68751 18.3092 1.43424C17.4808 1.13956 16.6065 0.979164 15.7226 0.959708C14.5884 0.900391 14.2287 0.900391 11.3309 0.900391Z" fill="white"/>
<path d="M11.3309 5.83691C10.249 5.83691 9.19128 6.14267 8.29164 6.71553C7.39201 7.28838 6.69083 8.1026 6.27678 9.05522C5.86272 10.0078 5.75439 11.0561 5.96547 12.0674C6.17655 13.0787 6.69758 14.0076 7.46265 14.7367C8.22772 15.4658 9.20249 15.9623 10.2637 16.1635C11.3249 16.3647 12.4248 16.2614 13.4244 15.8668C14.4241 15.4722 15.2784 14.804 15.8796 13.9467C16.4807 13.0894 16.8015 12.0814 16.8015 11.0503C16.8015 9.66762 16.2252 8.34158 15.1992 7.36388C14.1733 6.38618 12.7818 5.83691 11.3309 5.83691ZM11.3309 14.438C10.6279 14.438 9.94056 14.2393 9.35597 13.8671C8.77138 13.4948 8.31575 12.9657 8.04669 12.3467C7.77763 11.7277 7.70724 11.0465 7.8444 10.3894C7.98156 9.73223 8.32013 9.1286 8.81728 8.65482C9.31444 8.18104 9.94785 7.85839 10.6374 7.72768C11.327 7.59696 12.0418 7.66405 12.6913 7.92046C13.3409 8.17687 13.8961 8.61108 14.2867 9.16818C14.6773 9.72529 14.8858 10.3803 14.8858 11.0503C14.8858 11.4952 14.7938 11.9357 14.6152 12.3467C14.4365 12.7577 14.1747 13.1312 13.8446 13.4458C13.5145 13.7603 13.1226 14.0099 12.6913 14.1801C12.26 14.3504 11.7978 14.438 11.3309 14.438Z" fill="white"/>
<path d="M17.0158 6.85107C17.7224 6.85107 18.2953 6.30509 18.2953 5.63159C18.2953 4.95809 17.7224 4.41211 17.0158 4.41211C16.3092 4.41211 15.7363 4.95809 15.7363 5.63159C15.7363 6.30509 16.3092 6.85107 17.0158 6.85107Z" fill="white"/>
</svg>
