<svg width="23" height="22" viewBox="0 0 23 22" fill="none" xmlns="http://www.w3.org/2000/svg">
<path d="M0.356567 7.25862H4.96094V21.3525H0.356567V7.25862ZM2.6665 0.241211C4.13928 0.241211 5.33301 1.37877 5.33301 2.78225C5.33301 4.18574 4.13928 5.32329 2.6665 5.32329C1.19373 5.32329 0 4.18574 0 2.78225C0 1.37877 1.19373 0.241211 2.6665 0.241211Z" fill="white"/>
<path d="M7.85986 7.25886H12.2627V9.17938H12.3247C12.9448 8.07138 14.4331 6.9043 16.681 6.9043C21.3319 6.9043 22.2001 9.8294 22.2001 13.6261V21.3525H17.5957V14.4977C17.5957 12.8579 17.5647 10.7601 15.2083 10.7601C12.8208 10.7601 12.4487 12.5477 12.4487 14.3796V21.3525H7.85986V7.25886Z" fill="white"/>
</svg>
