<svg width="51" height="79" viewBox="0 0 51 79" fill="none" xmlns="http://www.w3.org/2000/svg">
<path d="M13.6711 60.1735C13.5748 60.0783 13.469 60.0117 13.3631 59.9641C13.2572 59.9165 13.1417 59.8975 13.007 59.8975C12.7568 59.8975 12.5547 59.9641 12.4103 60.1069C12.2659 60.2496 12.189 60.3829 12.1601 60.5066C12.1312 60.6303 12.1216 60.8397 12.1216 61.1253C12.1216 61.4108 12.1312 61.6202 12.1601 61.7439C12.1793 61.8677 12.2659 62.0009 12.4103 62.1437C12.5547 62.2865 12.7472 62.3531 13.007 62.3531C13.2669 62.3531 13.4786 62.2674 13.6518 62.0961C13.7673 61.9819 13.8347 61.8677 13.8539 61.7439C13.8732 61.6202 13.8828 61.4108 13.8828 61.1253C13.8828 60.8397 13.8732 60.6399 13.8443 60.5066C13.8251 60.3829 13.7673 60.2687 13.6711 60.1735ZM13.4882 61.6392C13.469 61.7344 13.4305 61.8106 13.3823 61.8677C13.3342 61.9248 13.2765 61.9629 13.2091 61.9914C13.1417 62.02 13.0744 62.0295 13.007 62.0295C12.93 62.0295 12.8626 62.02 12.8049 61.9914C12.7375 61.9629 12.6798 61.9248 12.6317 61.8677C12.5835 61.8106 12.545 61.7344 12.5258 61.6488C12.5065 61.5631 12.4969 61.3918 12.4969 61.1348C12.4969 60.8873 12.5065 60.716 12.5258 60.6208C12.545 60.5256 12.5739 60.4495 12.6317 60.3924C12.6798 60.3353 12.7375 60.2972 12.8049 60.2687C12.8723 60.2401 12.9396 60.2306 13.007 60.2306C13.084 60.2306 13.1514 60.2401 13.2091 60.2687C13.2765 60.2972 13.3246 60.3353 13.3727 60.3829C13.4305 60.4495 13.4786 60.5256 13.4882 60.6208C13.5075 60.7065 13.5171 60.8778 13.5171 61.1348C13.5171 61.3727 13.5075 61.5441 13.4882 61.6392Z" fill="white"/>
<path d="M8.61806 61.0408C8.70468 60.9266 8.7528 60.7934 8.7528 60.6221C8.7528 60.4127 8.68543 60.2413 8.54107 60.1081C8.40633 59.9748 8.22347 59.9082 7.99249 59.9082H7.04932V62.3258H7.41504V61.3073H7.877L8.38708 62.3258H8.82017L8.26196 61.2502C8.41595 61.2312 8.53144 61.1551 8.61806 61.0408ZM7.42466 61.0123V60.2508H7.97324C8.09835 60.2508 8.20422 60.2889 8.27159 60.3555C8.34858 60.4222 8.38708 60.5174 8.38708 60.6316C8.38708 60.7458 8.34858 60.841 8.27159 60.9076C8.1946 60.9742 8.09835 61.0123 7.97324 61.0123H7.42466Z" fill="white"/>
<path d="M4.55731 45.3057H1.97803V57.9741H4.55731V45.3057Z" fill="white"/>
<path d="M14.0562 53.1199L8.82069 45.3057H6.52051V57.9741H9.09979V49.9885L14.3257 57.9741H16.6355V45.3057H14.0562V53.1199Z" fill="white"/>
<path d="M46.413 17.0565C46.9231 17.047 47.3562 16.8661 47.693 16.514C48.0395 16.1713 48.2127 15.7335 48.2127 15.2195C48.2031 14.696 48.0299 14.2582 47.693 13.9061C47.3562 13.5539 46.9231 13.373 46.413 13.373C45.9029 13.3826 45.4795 13.5539 45.1426 13.9061C44.7961 14.2582 44.6133 14.696 44.6133 15.2195C44.6229 15.743 44.7961 16.1713 45.1426 16.514C45.4795 16.8661 45.9029 17.047 46.413 17.0565ZM45.4025 14.144C45.6623 13.868 45.9992 13.7347 46.413 13.7252C46.8268 13.7252 47.1733 13.868 47.4332 14.144C47.693 14.4105 47.8278 14.7722 47.8374 15.21C47.8374 15.6478 47.7026 16 47.4332 16.2665C47.1733 16.5425 46.8268 16.6853 46.413 16.6948C45.9992 16.6948 45.6623 16.552 45.4025 16.276C45.133 16.0095 44.9982 15.6574 44.9982 15.2195C44.9982 14.7722 45.133 14.4105 45.4025 14.144Z" fill="white"/>
<path d="M46.0854 15.3629H46.2876L46.8939 16.2385H47.3077L46.7014 15.3533C46.8554 15.3343 46.9805 15.2772 47.0864 15.1915C47.1826 15.0964 47.2403 14.9441 47.2403 14.7347C47.2403 14.3064 46.9997 14.0875 46.5185 14.097H45.7197V16.248H46.0758V15.3629H46.0854ZM46.0854 14.4206H46.4127C46.5378 14.4206 46.6533 14.4396 46.7399 14.4777C46.8361 14.5158 46.8843 14.6014 46.8843 14.7252C46.8843 14.8584 46.8265 14.9441 46.7206 14.9821C46.6148 15.0202 46.48 15.0297 46.326 15.0297H46.0758V14.4206H46.0854Z" fill="white"/>
<path d="M26.8948 1.73331C25.9132 0.752959 24.3155 0.752959 23.3339 1.73331L17.9443 7.06337H32.294L26.8948 1.73331Z" fill="white"/>
<path d="M2.90195 59.9268H1.97803V62.3443H2.34375V61.3925H2.90195C3.13293 61.3925 3.32541 61.3259 3.46978 61.1831C3.61414 61.0499 3.68151 60.869 3.68151 60.6596C3.68151 60.4407 3.61414 60.2694 3.46978 60.1362C3.32541 59.9934 3.14255 59.9268 2.90195 59.9268ZM3.2003 60.9547C3.12331 61.0213 3.01744 61.0594 2.8827 61.0594H2.34375V60.2504H2.8827C3.01744 60.2504 3.11368 60.2884 3.2003 60.3551C3.27729 60.4312 3.31579 60.5264 3.31579 60.6501C3.31579 60.7834 3.27729 60.8786 3.2003 60.9547Z" fill="white"/>
<path d="M42.5052 59.1367H42.1106L41.8604 59.6888H42.1202L42.5052 59.1367Z" fill="white"/>
<path d="M47.8851 61.621L46.7494 59.9268H46.4126V62.3443H46.7879V60.6406L47.914 62.3443H48.2508V59.9268H47.8851V61.621Z" fill="white"/>
<path d="M17.1362 60.2504H17.8099V62.3443H18.1756V60.2504H18.8493V59.9268H17.1362V60.2504Z" fill="white"/>
<path d="M47.0289 51.484C47.4908 50.8844 47.7218 50.161 47.7218 49.314C47.7218 48.1718 47.3368 47.2295 46.5573 46.4586C45.7873 45.6971 44.7383 45.3164 43.439 45.3164H38.2612V57.9848H40.8309V53.1592H42.6884L45.2676 57.9753H48.2511L45.3061 52.7404C45.9991 52.4929 46.5669 52.0742 47.0289 51.484ZM44.6132 50.5418C44.2667 50.8559 43.8144 51.0177 43.2562 51.0177H40.8213V47.5912H43.2562C43.824 47.5912 44.2763 47.7435 44.6228 48.0576C44.9597 48.3622 45.1329 48.7809 45.1329 49.3044C45.1329 49.8089 44.9597 50.2182 44.6132 50.5418Z" fill="white"/>
<path d="M37.6932 59.9268H37.3179V62.3443H37.6932V59.9268Z" fill="white"/>
<path d="M49.483 24.0721L47.7314 22.3399L33.9495 8.71012C33.6223 8.38651 33.1507 8.2247 32.6888 8.28181C31.2548 8.46265 30.2731 8.75771 29.7245 9.16698C28.9161 9.76661 28.5215 11.1086 28.5215 13.2026V38.4443C28.5215 40.6334 28.9257 41.9945 29.7245 42.5179C30.2731 42.8701 31.2644 43.1461 32.708 43.3365C33.17 43.4031 33.6416 43.2413 33.9784 42.9177L49.483 27.5842C50.4646 26.6229 50.4646 25.043 49.483 24.0721Z" fill="white"/>
<path d="M42.6979 60.1735C42.6017 60.0783 42.4958 60.0117 42.39 59.9641C42.2841 59.9165 42.1686 59.8975 42.0339 59.8975C41.7836 59.8975 41.5815 59.9641 41.4372 60.1069C41.2928 60.2496 41.2158 60.3829 41.1869 60.5066C41.1677 60.6303 41.1484 60.8397 41.1484 61.1253C41.1484 61.4108 41.1581 61.6202 41.1869 61.7439C41.2062 61.8677 41.2928 62.0009 41.4372 62.1437C41.5815 62.2865 41.774 62.3531 42.0339 62.3531C42.2937 62.3531 42.5054 62.2674 42.6787 62.0961C42.7942 61.9819 42.8615 61.8677 42.8808 61.7439C42.9 61.6202 42.9097 61.4108 42.9097 61.1253C42.9097 60.8397 42.9 60.6399 42.8712 60.5066C42.8519 60.3829 42.7942 60.2687 42.6979 60.1735ZM42.5151 61.6392C42.4958 61.7344 42.467 61.8106 42.4092 61.8677C42.3611 61.9248 42.3033 61.9629 42.236 61.9914C42.1686 62.02 42.1012 62.0295 42.0339 62.0295C41.9569 62.0295 41.8895 62.02 41.8318 61.9914C41.7644 61.9629 41.7066 61.9248 41.6585 61.8677C41.6104 61.8106 41.5719 61.7344 41.5527 61.6488C41.5334 61.5631 41.5238 61.3918 41.5238 61.1348C41.5238 60.8873 41.5334 60.716 41.5527 60.6208C41.5719 60.5256 41.6008 60.4495 41.6585 60.3924C41.7066 60.3353 41.7644 60.2972 41.8318 60.2687C41.8991 60.2401 41.9665 60.2306 42.0339 60.2306C42.1109 60.2306 42.1782 60.2401 42.236 60.2687C42.3033 60.2972 42.3515 60.3353 42.3996 60.3829C42.4573 60.4495 42.4958 60.5256 42.5151 60.6208C42.5343 60.7065 42.5439 60.8778 42.5439 61.1348C42.5439 61.3727 42.5343 61.5441 42.5151 61.6392Z" fill="white"/>
<path d="M27.6262 60.3555C27.7032 60.2794 27.8091 60.2318 27.9631 60.2318C28.0978 60.2318 28.2037 60.2699 28.2903 60.346C28.3769 60.4222 28.4347 60.5174 28.4635 60.6506H28.8389C28.7907 60.4127 28.6945 60.2318 28.5405 60.0986C28.3865 59.9653 28.194 59.9082 27.9631 59.9082C27.7128 59.9082 27.5107 59.9748 27.3664 60.1176C27.222 60.2604 27.145 60.3936 27.1161 60.5173C27.0969 60.6411 27.0776 60.8505 27.0776 61.136C27.0776 61.4216 27.0873 61.631 27.1161 61.7547C27.1354 61.8784 27.222 62.0117 27.3664 62.1544C27.5107 62.2972 27.7032 62.3638 27.9631 62.3638C28.194 62.3638 28.3865 62.2972 28.5405 62.1735C28.6945 62.0402 28.7907 61.8594 28.8389 61.6214H28.4635C28.4347 61.7452 28.3769 61.8499 28.2903 61.926C28.2037 62.0022 28.0978 62.0402 27.9631 62.0402C27.8187 62.0402 27.7032 62.0022 27.6262 61.9165C27.5492 61.8308 27.5011 61.7452 27.4819 61.65C27.4626 61.5548 27.453 61.3835 27.453 61.136C27.453 60.8981 27.4626 60.7363 27.4819 60.6316C27.5107 60.5269 27.5492 60.4317 27.6262 60.3555Z" fill="white"/>
<path d="M22.189 62.3443H23.7481V62.0112H22.5643V61.2878H23.5748V60.9547H22.5643V60.2504H23.7481V59.9268H22.189V62.3443Z" fill="white"/>
<path d="M28.0786 57.9741H36.7789V55.6993H30.6579V52.7297H35.7972V50.4549H30.6579V47.59H36.7789V45.3057H28.0786V57.9741Z" fill="white"/>
<path d="M23.6419 57.9741V47.59H27.097V45.3057H17.6172V47.59H21.0626V57.9741H23.6419Z" fill="white"/>
<path d="M32.698 60.3555C32.775 60.2794 32.8809 60.2318 33.0348 60.2318C33.1696 60.2318 33.2754 60.2699 33.3621 60.346C33.4487 60.4222 33.5064 60.5174 33.5353 60.6506H33.9106C33.8625 60.4127 33.7663 60.2318 33.6123 60.0986C33.4583 59.9653 33.2658 59.9082 33.0348 59.9082C32.7846 59.9082 32.5825 59.9748 32.4381 60.1176C32.2938 60.2604 32.2168 60.3936 32.1879 60.5173C32.1687 60.6411 32.1494 60.8505 32.1494 61.136C32.1494 61.4216 32.159 61.631 32.1879 61.7547C32.2168 61.8784 32.2938 62.0117 32.4381 62.1544C32.5825 62.2972 32.775 62.3638 33.0348 62.3638C33.2658 62.3638 33.4583 62.2972 33.6123 62.1735C33.7663 62.0402 33.8625 61.8594 33.9106 61.6214H33.5353C33.5064 61.7452 33.4487 61.8499 33.3621 61.926C33.2754 62.0022 33.1696 62.0402 33.0348 62.0402C32.8905 62.0402 32.775 62.0022 32.698 61.9165C32.621 61.8308 32.5729 61.7452 32.5536 61.65C32.5344 61.5548 32.5248 61.3835 32.5248 61.136C32.5248 60.8981 32.5344 60.7363 32.5536 60.6316C32.5825 60.5269 32.621 60.4317 32.698 60.3555Z" fill="white"/>
<path d="M16.2504 42.9269C16.5873 43.2601 17.0492 43.4123 17.5208 43.3457C18.9645 43.1554 19.9558 42.8793 20.5043 42.5272C21.3031 42.0037 21.7074 40.6426 21.7074 38.4535V13.2118C21.7074 11.1179 21.3031 9.77585 20.5043 9.17622C19.9558 8.76695 18.9645 8.47189 17.5401 8.29105C17.0781 8.23394 16.6065 8.38623 16.2793 8.71936L0.73625 24.0718C-0.245417 25.0427 -0.245417 26.6227 0.73625 27.5935L16.2504 42.9269Z" fill="white"/>
<path d="M2.56526 77.6122C2.80587 77.755 3.15234 77.8787 3.51806 77.8787C4.05701 77.8787 4.37461 77.5932 4.37461 77.1839C4.37461 76.8032 4.15325 76.5843 3.59505 76.3749C2.92136 76.137 2.50752 75.7943 2.50752 75.2232C2.50752 74.5855 3.03685 74.1191 3.83565 74.1191C4.25912 74.1191 4.56709 74.2143 4.74995 74.319L4.60559 74.7473C4.47085 74.6712 4.19175 74.557 3.82603 74.557C3.26783 74.557 3.04647 74.8901 3.04647 75.1661C3.04647 75.5468 3.2967 75.7372 3.86453 75.9561C4.55747 76.2226 4.91356 76.5557 4.91356 77.1554C4.91356 77.7836 4.44198 78.3261 3.46993 78.3261C3.07534 78.3261 2.64225 78.2119 2.4209 78.0691L2.56526 77.6122Z" fill="white"/>
<path d="M7.73374 76.3451H6.1265V77.8109H7.9166V78.2583H5.59717V74.1846H7.82036V74.6224H6.1265V75.9073H7.73374V76.3451Z" fill="white"/>
<path d="M11.6886 78.0764C11.448 78.1621 10.9764 78.2953 10.4279 78.2953C9.8023 78.2953 9.29221 78.1335 8.888 77.7623C8.5319 77.4197 8.31055 76.8772 8.31055 76.249C8.32017 75.0307 9.15748 74.1455 10.5434 74.1455C11.0246 74.1455 11.3903 74.2502 11.5731 74.3359L11.448 74.7642C11.2267 74.669 10.9572 74.5929 10.5337 74.5929C9.53282 74.5929 8.87837 75.2115 8.87837 76.2299C8.87837 77.2579 9.50395 77.8766 10.4664 77.8766C10.8128 77.8766 11.0534 77.829 11.1786 77.7719V76.5536H10.3413V76.1348H11.6983V78.0764H11.6886Z" fill="white"/>
<path d="M13.017 74.1843V76.5924C13.017 77.5061 13.4212 77.8868 13.9794 77.8868C14.5857 77.8868 14.9803 77.4871 14.9803 76.5924V74.1843H15.5193V76.5543C15.5193 77.8011 14.8552 78.3151 13.9602 78.3151C13.1132 78.3151 12.478 77.8392 12.478 76.5733V74.1748H13.017V74.1843Z" fill="white"/>
<path d="M16.4434 74.2419C16.7128 74.1848 17.0978 74.1562 17.4635 74.1562C18.0314 74.1562 18.3971 74.2609 18.6569 74.4894C18.8687 74.6702 18.9841 74.9462 18.9841 75.2603C18.9841 75.7933 18.6377 76.155 18.2046 76.2978V76.3168C18.5222 76.4215 18.7147 76.7166 18.8109 77.1354C18.9456 77.7065 19.0419 78.0967 19.1285 78.249H18.5799C18.5126 78.1348 18.4259 77.7826 18.3008 77.2781C18.1757 76.7166 17.9544 76.5072 17.4731 76.4882H16.9727V78.249H16.4434V74.2419ZM16.9727 76.0979H17.5116C18.0795 76.0979 18.4356 75.7933 18.4356 75.327C18.4356 74.8035 18.0506 74.575 17.4924 74.5655C17.2325 74.5655 17.0497 74.5941 16.9631 74.6131V76.0979H16.9727Z" fill="white"/>
<path d="M23.2762 76.1738C23.2762 77.5729 22.4197 78.3153 21.361 78.3153C20.2735 78.3153 19.5132 77.4778 19.5132 76.2499C19.5132 74.9555 20.3216 74.1084 21.4284 74.1084C22.5544 74.1179 23.2762 74.9745 23.2762 76.1738ZM20.081 76.2404C20.081 77.1066 20.5526 77.887 21.3899 77.887C22.2368 77.887 22.7084 77.1161 22.7084 76.1928C22.7084 75.3838 22.285 74.5367 21.3995 74.5367C20.5237 74.5462 20.081 75.3457 20.081 76.2404Z" fill="white"/>
<path d="M23.4492 78.9999C23.584 78.6478 23.7476 78.0005 23.8149 77.5532L24.4116 77.4961C24.2673 78.0101 23.9978 78.6763 23.8342 78.9619L23.4492 78.9999Z" fill="white"/>
<path d="M28.474 75.0307C28.2526 74.7071 27.9639 74.4786 27.3768 74.4786C26.7994 74.4786 26.4144 74.7166 26.4144 75.2306C26.4144 75.8302 26.8956 75.9825 27.5116 76.1157C28.3007 76.2871 28.8301 76.525 28.8301 77.315C28.8301 77.848 28.4547 78.4 27.4442 78.4C26.7705 78.4 26.2797 78.1716 25.9717 77.7147L26.2604 77.5149C26.5203 77.8385 26.8186 78.0669 27.4442 78.0669C28.1949 78.0669 28.474 77.7243 28.474 77.315C28.474 76.8105 28.1852 76.5726 27.3864 76.4203C26.5973 76.268 26.0583 75.9634 26.0583 75.221C26.0583 74.6309 26.4433 74.1455 27.3864 74.1455C28.0409 74.1455 28.4547 74.3644 28.7531 74.8308L28.474 75.0307Z" fill="white"/>
<path d="M32.131 74.1836V74.5072H30.004V76.0301H31.9481V76.3537H30.004V78.0289H32.131V78.3525H29.6479V74.1836H32.131Z" fill="white"/>
<path d="M35.7594 76.3166V76.4879C35.7594 77.8204 35.182 78.3915 34.2388 78.3915C33.3245 78.3915 32.7471 77.868 32.7471 76.5165V76.0215C32.7471 74.67 33.3245 74.1465 34.2388 74.1465C34.9799 74.1465 35.5862 74.5367 35.7209 75.4409H35.3745C35.2397 74.7461 34.8259 74.4701 34.2388 74.4701C33.5266 74.4701 33.0935 74.8794 33.0935 76.012V76.5069C33.0935 77.6396 33.517 78.0489 34.2388 78.0489C34.9414 78.0489 35.3648 77.6491 35.4033 76.6307H34.2581V76.3071H35.7594V76.3166Z" fill="white"/>
<path d="M36.5874 76.6487V74.1836H36.9435V76.6487C36.9435 77.6101 37.3477 78.0574 38.0888 78.0574C38.8298 78.0574 39.2341 77.6101 39.2341 76.6487V74.1836H39.5901V76.6487C39.5901 77.8766 39.0127 78.3905 38.0984 78.3905C37.1745 78.3905 36.5874 77.8766 36.5874 76.6487Z" fill="white"/>
<path d="M43.1508 78.3525L42.2172 76.5726C42.1306 76.5821 42.0344 76.5821 41.9381 76.5821H40.9757V78.3525H40.6196V74.1836H41.9285C42.8813 74.1836 43.4299 74.5929 43.4299 75.3829C43.4299 75.973 43.1219 76.3537 42.5637 76.506L43.5454 78.3525H43.1508ZM41.9381 76.2585C42.6792 76.2585 43.0834 76.011 43.0834 75.3924C43.0834 74.7737 42.6696 74.5167 41.9381 74.5167H40.9757V76.2585H41.9381Z" fill="white"/>
<path d="M45.6534 78.3915C44.7487 78.3915 44.1616 77.8395 44.1616 76.5165V76.0215C44.1616 74.708 44.7583 74.1465 45.6534 74.1465C46.558 74.1465 47.1451 74.708 47.1451 76.0215V76.5165C47.1451 77.8299 46.5484 78.3915 45.6534 78.3915ZM44.5081 76.5165C44.5081 77.6491 44.9604 78.0584 45.6534 78.0584C46.3463 78.0584 46.7987 77.6396 46.7987 76.5165V76.0215C46.7987 74.8984 46.3463 74.4796 45.6534 74.4796C44.9604 74.4796 44.5081 74.8984 44.5081 76.0215V76.5165Z" fill="white"/>
<path d="M48.2516 77.8574H47.7607V78.3428H48.2516V77.8574Z" fill="white"/>
<path d="M48.0485 69.1689H2.73779V69.5306H48.0485V69.1689Z" fill="white"/>
</svg>
