<svg width="14" height="14" viewBox="0 0 14 14" fill="none" xmlns="http://www.w3.org/2000/svg">
<path d="M14 9.53514V12.9405C13.999 13.1209 13.9249 13.2935 13.7938 13.421C13.6628 13.5486 13.4853 13.6206 13.3 13.6216C9.77262 13.6216 6.38971 12.2582 3.89548 9.83142C1.40125 7.4046 0 4.11313 0 0.681081C0.00102116 0.500754 0.0750988 0.328095 0.206154 0.200582C0.337208 0.0730692 0.514663 0.000993563 0.7 0H4.2C4.3151 0.000494871 4.42827 0.0287504 4.5294 0.0822371C4.63052 0.135724 4.71643 0.212773 4.77944 0.306486L6.17944 2.34973C6.27186 2.48075 6.31428 2.63908 6.29936 2.79732C6.28445 2.95555 6.21314 3.10374 6.09778 3.21622L5.05556 4.21514C6.31944 6.5573 7.41222 7.62054 9.65222 8.71027L10.7022 7.68865C10.8173 7.5783 10.9681 7.5101 11.129 7.49561C11.2899 7.48113 11.451 7.52126 11.585 7.60919L13.685 8.97135C13.7813 9.03266 13.8605 9.11625 13.9155 9.21464C13.9705 9.31303 13.9995 9.42315 14 9.53514V9.53514Z" fill="white"/>
</svg>
