<?xml version="1.0" encoding="utf-8"?>
<!-- Generator: Adobe Illustrator 24.0.1, SVG Export Plug-In . SVG Version: 6.00 Build 0)  -->
<svg version="1.1" id="Layer_1" xmlns="http://www.w3.org/2000/svg" xmlns:xlink="http://www.w3.org/1999/xlink" x="0px" y="0px"
	 viewBox="0 0 67 66" style="enable-background:new 0 0 67 66;" xml:space="preserve">
<style type="text/css">
	.st0{fill:url(#SVGID_1_);}
	.st1{fill:url(#SVGID_2_);}
</style>
<linearGradient id="SVGID_1_" gradientUnits="userSpaceOnUse" x1="33.45" y1="3" x2="33.45" y2="57.3435">
	<stop  offset="0" style="stop-color:#A0DBF2"/>
	<stop  offset="1" style="stop-color:#51B5DA"/>
</linearGradient>
<path class="st0" d="M59.3,19.4h-1.9C54.7,8.2,44.9,0,33.3,0C21.7,0,12,8.2,9.2,19.4H7.6c-4.2,0-7.6,3.4-7.6,7.7v6.7
	c0,4.2,3.4,7.7,7.6,7.7h3.8c1.7,0,3-1.3,3-3V25.7C14.4,14.8,22.8,6,33.3,6s19,8.8,19,19.7v9.4c0,9.2-6.3,17.3-14.9,19.3l1.3,5.9
	c9.2-2.1,16.5-9.6,18.7-18.8h1.9c4.2,0,7.6-3.5,7.6-7.7v-6.7C66.9,22.9,63.5,19.4,59.3,19.4z M8.5,25.7v9.8H7.6
	c-0.9,0-1.6-0.7-1.6-1.7v-6.7c0-0.9,0.7-1.7,1.6-1.7v-0.1h0.9C8.5,25.5,8.5,25.6,8.5,25.7z M60.9,33.8c0,0.9-0.7,1.7-1.6,1.7h-1.1
	c0-0.1,0-0.3,0-0.4v-9.4c0-0.1,0-0.2,0-0.3h1.1c0.9,0,1.6,0.7,1.6,1.7V33.8z"/>
<g>
	
		<linearGradient id="SVGID_2_" gradientUnits="userSpaceOnUse" x1="32.3" y1="1066.0468" x2="32.3" y2="1075.0001" gradientTransform="matrix(1 0 0 1 0 -1012)">
		<stop  offset="0" style="stop-color:#A0DBF2"/>
		<stop  offset="1" style="stop-color:#51B5DA"/>
	</linearGradient>
	<path class="st1" d="M32.3,66c-4.2,0-7.6-3.4-7.6-7.5s3.4-7.5,7.6-7.5s7.6,3.4,7.6,7.5S36.4,66,32.3,66z M32.3,57
		c-0.9,0-1.6,0.7-1.6,1.5s0.7,1.5,1.6,1.5c0.9,0,1.6-0.7,1.6-1.5S33.1,57,32.3,57z"/>
</g>
</svg>
