<svg width="372" height="163" viewBox="0 0 372 163" fill="none" xmlns="http://www.w3.org/2000/svg">
<g clip-path="url(#clip0)">
<path d="M82.6 22.1002L70 24.9002L66 8.9002L87.9 2.7002H103V78.2002H82.6V22.1002Z" fill="#DB0080"/>
<path d="M112.2 66.4002L125.3 53.3002C130.7 58.8002 136.3 61.9002 143.2 61.9002C149.1 61.9002 152.8 58.9002 152.8 54.3002V54.1002C152.8 49.3002 148.4 46.4002 140.6 46.4002H131.8L128.8 35.6002L146.1 20.0002H117.4V3.2002H171.6V18.1002L153.7 33.4002C164.4 35.8002 173.1 41.7002 173.1 54.5002V54.7002C173.1 69.9002 160.9 79.6002 144.2 79.6002C129.7 79.6002 119.5 74.4002 112.2 66.4002Z" fill="#DB0080"/>
<path d="M214.2 20.7002H179.5V3.2002H237.2V18.8002L204.1 78.1002H181.2L214.2 20.7002Z" fill="#DB0080"/>
<path d="M245.8 0H266.1V39.6L281.8 20.2H304.8L284.7 43.4L305.4 78.1H283L271.3 58.4L266.1 64.5V78.1H245.8V0Z" fill="#DB0080"/>
</g>
<g opacity="0.5">
<g opacity="0.5">
<path opacity="0.5" d="M6.6 157.2C6.6 158.8 5.9 162 3.2 162C1.9 162 0.4 160.7 0.4 159.4C0.4 159 0.5 158.4 0.5 157.8C0.4 156.3 0.4 154.9 0.4 153.5C0.4 149.1 0.5 144.7 0.5 139.9C0.5 136.3 0.4 132.9 0.4 128.6C0.4 125 0 121.8 0 118.2C0 116.7 0.4 115.9 2.6 115.9C5 115.9 5.5 117.2 6 118.8C6.7 118.5 7.8 118.1 8.5 118.1H8.9C11.2 118.1 12.1 118.5 13.3 119.2L13.5 119.3C13.6 119.3 13.6 119.4 13.7 119.4C16.9 121.1 19.4 125.8 19.4 129.6C19.4 134.2 15.6 140.7 7.5 140.7C7.2 140.7 6.7 140.8 6.3 140.6C6.1 140.9 6.2 141.2 6.2 143.5V151.1C6.2 153.4 6.6 155.4 6.6 157.2ZM13.7 129.3C13.7 126.3 11.8 123.1 8.6 122.6L7.8 122.9C7.3 123.1 6.4 123.7 6.2 123.9C6.1 124 6.1 124.1 5.9 124.2C5.8 124.3 5.8 124.7 5.8 125.4C5.8 127 6 129.7 6 130.5V132.7C6 134.5 6.1 136.4 6.8 136.4C8.1 136.4 9 136.3 10.4 135.6L11.7 134.8C13 133.1 13.7 131.4 13.7 129.3Z" fill="black"/>
<path opacity="0.5" d="M32.5999 117.3C36.9999 117.3 39.1999 120.2 39.1999 123.2C39.1999 127.1 36.2999 130.8 31.1999 130.9C30.0999 131 29.3999 130.8 28.2999 130.5C28.1999 130.9 28.1999 131.2 28.1999 131.4C28.3999 137.6 32.4999 138.1 33.0999 138.1C35.6999 138.1 37.1999 136.7 39.2999 135.2C39.6999 135.4 40.2999 135.5 40.6999 136.1C40.7999 136.6 40.8999 136.8 40.8999 137.4C40.7999 138.6 40.1999 139.4 39.4999 139.9C37.2999 141.7 35.7999 142.1 32.6999 142.1C31.3999 142.1 28.9999 141.4 27.6999 140.7C23.6999 137.7 23.2999 134.5 23.0999 130.5C22.9999 124.2 26.2999 117.3 32.5999 117.3ZM30.1999 127.2C33.0999 127.2 34.6999 125.5 34.6999 123.5C34.6999 122.3 33.9999 121.1 32.7999 121.1C31.9999 121.1 31.0999 121.2 30.5999 121.9C29.9999 122.7 28.7999 123.4 28.4999 127.1C28.8999 127.2 29.7999 127.2 30.1999 127.2Z" fill="black"/>
<path opacity="0.5" d="M44.7998 136.9C44.7998 133.7 44.5998 129.1 44.5998 128.7V126.6C44.5998 124.8 44.3998 122.9 44.2998 121V120.7C44.2998 119.9 43.7998 119.2 43.7998 118.4C44.0998 117.3 44.5998 116.7 46.0998 116.7C48.9998 116.7 49.0998 119.1 49.2998 121L49.4998 124.4C51.1998 123.1 53.1998 118.6 55.5998 116.8C55.8998 116.6 56.3998 116.5 56.8998 116.5C58.8998 116.5 60.0998 117.2 60.7998 118.9C60.4998 120.4 57.3998 122.8 55.8998 125.1C53.3998 127.8 50.4998 133.5 50.4998 135.6C50.4998 136.3 50.5998 137.8 50.5998 138.5C50.5998 140.5 49.9998 143 47.2998 143C45.6998 143 44.5998 141.9 44.5998 140.5V140.2C44.7998 139.7 44.7998 138.6 44.7998 136.9Z" fill="black"/>
<path opacity="0.5" d="M75.0002 139C75.0002 143.2 72.0002 146.8 67.8002 146.8C66.0002 146.8 64.3002 145.1 64.1002 143.4C64.4002 142.7 64.5002 142.5 65.6002 142.3C66.1002 142.8 66.6002 143.1 67.1002 143.1C68.6002 143.1 69.8002 141.7 69.8002 139.7C69.8002 139.4 69.8002 139.1 69.7002 139.1C67.9002 131.5 63.2002 127 63.2002 122.1C63.2002 118.1 64.4002 112.8 68.7002 112.8C69.0002 112.8 69.1002 112.9 69.4002 112.9C70.2002 112.9 70.9002 114 71.1002 114.7C71.1002 115.4 70.5002 115.7 70.1002 116.1C69.1002 117.4 68.6002 119.1 68.6002 120.9V122.4C68.6002 123.5 70.5002 127.4 71.1002 128.3L71.4002 128.8C73.3002 131.9 75.0002 134.9 75.0002 139Z" fill="black"/>
<path opacity="0.5" d="M82.4996 139.7C79.6996 138.1 78.0996 135.5 78.0996 131.7C78.0996 129.9 78.8996 127 79.3996 124.8C79.8996 123 83.2996 117.5 87.1996 117.5C87.5996 117.5 87.9996 117.6 88.2996 117.9C90.6996 119.4 93.5996 119.7 95.7996 121.6C96.7996 122.4 97.0996 123.6 97.5996 124.6C97.9996 125.4 97.9996 126.3 97.9996 127.3V128.5C97.8996 131.1 96.7996 133.3 95.4996 135.4C94.1996 137.6 90.8996 141.6 87.8996 141.6C87.4996 141.6 86.9996 141.5 86.4996 141.5H86.0996C84.7996 141.5 83.6996 140.4 82.4996 139.7ZM88.1996 122.8C84.8996 122.8 83.2996 128.8 83.2996 132.1C83.2996 132.8 83.6996 136.8 85.6996 136.8C86.6996 136.8 87.2996 136.5 88.1996 136C90.9996 134.3 92.0996 130 92.3996 126.6V126.3C92.4996 123.8 90.2996 122.8 88.1996 122.8Z" fill="black"/>
<path opacity="0.5" d="M110.3 127.1L110.4 126.7C111.4 123.9 114.6 118.1 118 118.1C120.8 118.9 120.5 122 121.6 124.2C123.8 129.1 123.3 135.8 125.3 140.5C125.1 141.8 123.5 142.5 122.4 142.5C119.3 142.5 119.4 137.2 118.7 134.8C117.9 131.9 117.8 127 116.2 125C113.3 129.6 113 132.8 110.9 136.4C108.2 141.3 106.6 141.4 105 141.4C104.2 141.4 102.5 140.4 102.5 139.2C102.5 133.9 102.6 129.6 102.6 124.5C102.6 123 102.5 121.6 102.5 120.1C102.5 119.1 102.8 118 103.8 117.6C104.3 117.6 104.8 117.5 105.3 117.5C107.5 117.5 107.7 120.5 107.7 121.9C107.7 122.9 108 123.6 108 124.6C108 127.7 107.9 129.7 107.9 131.8V132.1C109 130.9 109.6 128.8 110.3 127.1Z" fill="black"/>
<path opacity="0.5" d="M151.3 142C151.3 143.3 149.6 143.7 148.6 143.7C145.2 143.7 144.5 135 143.6 129.9C143.1 133.5 137.5 141.7 132.4 141.7C128.3 141.7 127.5 138.1 127.5 135.5C127.5 130 133.5 117.3 140.6 117.3C142.2 117.3 144.7 118.4 146.1 119.5C147.6 120.7 147.9 122.9 148.1 125.1C148.7 129.4 148.8 132.5 149.8 136.3L150.2 138.7L150.6 140C150.9 140.6 151.3 141.3 151.3 142ZM132.8 136.8C134.9 136.6 139.1 130.5 140.2 127.2C140.8 125.7 142.3 123.2 142.3 122.1C141.9 121.9 141.6 121.7 141.2 121.7C137.5 121.7 135.4 128.4 134.8 129.3C133.6 131.4 132.7 134 132.7 136.3V136.6C132.8 136.7 132.8 136.8 132.8 136.8Z" fill="black"/>
<path opacity="0.5" d="M166 139C166 143.2 163 146.8 158.8 146.8C157 146.8 155.3 145.1 155.1 143.4C155.4 142.7 155.5 142.5 156.6 142.3C157.1 142.8 157.6 143.1 158.1 143.1C159.6 143.1 160.8 141.7 160.8 139.7C160.8 139.4 160.8 139.1 160.7 139.1C158.9 131.5 154.2 127 154.2 122.1C154.2 118.1 155.4 112.8 159.7 112.8C160 112.8 160.1 112.9 160.4 112.9C161.2 112.9 161.9 114 162.1 114.7C162.1 115.4 161.5 115.7 161.1 116.1C160.1 117.4 159.6 119.1 159.6 120.9V122.4C159.6 123.5 161.5 127.4 162.1 128.3L162.4 128.8C164.3 131.9 166 134.9 166 139Z" fill="black"/>
<path opacity="0.5" d="M208.1 142C208.1 143.3 206.4 143.7 205.4 143.7C202 143.7 201.3 135 200.4 129.9C199.9 133.5 194.3 141.7 189.2 141.7C185.1 141.7 184.3 138.1 184.3 135.5C184.3 130 190.3 117.3 197.4 117.3C199 117.3 201.5 118.4 202.9 119.5C204.4 120.7 204.7 122.9 204.9 125.1C205.5 129.4 205.6 132.5 206.6 136.3L207 138.7L207.4 140C207.8 140.6 208.1 141.3 208.1 142ZM189.7 136.8C191.8 136.6 196 130.5 197.1 127.2C197.7 125.7 199.2 123.2 199.2 122.1C198.8 121.9 198.5 121.7 198.1 121.7C194.4 121.7 192.3 128.4 191.7 129.3C190.5 131.4 189.6 134 189.6 136.3V136.6C189.6 136.7 189.7 136.8 189.7 136.8Z" fill="black"/>
<path opacity="0.5" d="M217.9 157.2C217.9 158.8 217.2 162 214.5 162C213.2 162 211.7 160.7 211.7 159.4C211.7 159 211.8 158.4 211.8 157.8C211.7 156.3 211.7 154.9 211.7 153.5C211.7 149.1 211.8 144.7 211.8 139.9C211.8 136.3 211.7 132.9 211.7 128.6C211.7 125 211.3 121.8 211.3 118.2C211.3 116.7 211.7 115.9 213.9 115.9C216.3 115.9 216.8 117.2 217.3 118.8C218 118.5 219.1 118.1 219.8 118.1H220.2C222.5 118.1 223.4 118.5 224.6 119.2L224.8 119.3C224.9 119.3 224.9 119.4 225 119.4C228.2 121.1 230.7 125.8 230.7 129.6C230.7 134.2 226.9 140.7 218.8 140.7C218.5 140.7 218 140.8 217.6 140.6C217.4 140.9 217.5 141.2 217.5 143.5V151.1C217.4 153.4 217.9 155.4 217.9 157.2ZM224.9 129.3C224.9 126.3 223 123.1 219.8 122.6L219 122.9C218.5 123.1 217.6 123.7 217.4 123.9C217.3 124 217.3 124.1 217.1 124.2C217 124.3 217 124.7 217 125.4C217 127 217.2 129.7 217.2 130.5V132.7C217.2 134.5 217.3 136.4 218 136.4C219.3 136.4 220.2 136.3 221.6 135.6L222.9 134.8C224.2 133.1 224.9 131.4 224.9 129.3Z" fill="black"/>
<path opacity="0.5" d="M238.2 139.7C235.4 138.1 233.8 135.5 233.8 131.7C233.8 129.9 234.6 127 235.1 124.8C235.6 123 239 117.5 242.8 117.5C243.2 117.5 243.6 117.6 243.9 117.9C246.3 119.4 249.2 119.7 251.4 121.6C252.4 122.4 252.7 123.6 253.2 124.6C253.6 125.4 253.6 126.3 253.6 127.3V128.5C253.5 131.1 252.4 133.3 251.1 135.4C249.8 137.6 246.5 141.6 243.5 141.6C243.1 141.6 242.6 141.5 242.1 141.5H241.7C240.5 141.5 239.5 140.4 238.2 139.7ZM243.9 122.8C240.6 122.8 239 128.8 239 132.1C239 132.8 239.4 136.8 241.4 136.8C242.4 136.8 243 136.5 243.9 136C246.7 134.3 247.8 130 248.1 126.6V126.3C248.2 123.8 246 122.8 243.9 122.8Z" fill="black"/>
<path opacity="0.5" d="M264.7 137.1C268 136 269.4 129.4 270.2 126.6C270.7 123.2 270.2 116.9 273.1 116.9C274.6 116.9 276 117.7 276.3 119.1C276 123.9 275.9 127.4 275.9 129.7C275.9 131.2 276.2 135 276.2 137.8C276.2 146.8 274.2 153.7 269.1 159.7C267.6 160.8 265.9 162.7 261.9 162.7C260.8 162.7 258.9 161.8 258.9 160.2C258.9 159.2 264 158.1 266 155.8C269.8 150.7 271.1 145.6 271.1 139.5C271.1 138.8 271.1 138.3 271.2 137.7C271.1 137.6 271.1 137.6 270.9 137.6C269.9 139.9 266.9 142.4 264.9 142.4C258.6 142.4 257.8 133.1 257.8 128.7C257.8 128.2 257.9 127.7 257.9 127.2C257.9 125.7 257.8 124.5 257.8 123.1C257.8 121.1 258.1 117.4 260 117.4C263.9 117.4 262.8 120.8 263.3 123.1C263.2 124.3 263.2 126.5 263.2 127.5V128.6C262.9 130.9 263.1 135.9 264.7 137.1Z" fill="black"/>
<path opacity="0.5" d="M304.1 142C304.1 143.3 302.4 143.7 301.4 143.7C298 143.7 297.3 135 296.4 129.9C295.9 133.5 290.3 141.7 285.2 141.7C281.1 141.7 280.3 138.1 280.3 135.5C280.3 130 286.3 117.3 293.4 117.3C295 117.3 297.5 118.4 298.9 119.5C300.4 120.7 300.7 122.9 300.9 125.1C301.5 129.4 301.6 132.5 302.6 136.3L303 138.7L303.4 140C303.8 140.6 304.1 141.3 304.1 142ZM285.7 136.8C287.8 136.6 292 130.5 293.1 127.2C293.7 125.7 295.2 123.2 295.2 122.1C294.8 121.9 294.5 121.7 294.1 121.7C290.4 121.7 288.3 128.4 287.7 129.3C286.5 131.4 285.6 134 285.6 136.3V136.6C285.7 136.7 285.7 136.8 285.7 136.8Z" fill="black"/>
<path opacity="0.5" d="M329.4 135.9C329.9 136.9 330 137.9 330.5 138.9C330.5 140.6 329.4 141.2 328.6 141.2C328.4 141.2 327.2 141.2 327 141.1C326.2 140.8 325.4 140.7 324.6 138.7C323.8 137.5 322.9 131.7 322.2 130.4C320.9 137.3 316.4 141.6 312.7 141.6C308.4 141.6 306.6 138.4 306.6 134.2C306.6 129.3 309.6 121.7 314.1 118.6C314.4 118.4 315.2 117.5 316.9 117.5C318.1 117.5 319.3 117.9 320.3 118.3C320.3 115.3 319.9 112.5 319.9 109.7C319.9 109.4 319.8 107.3 319.8 104.7C319.8 103.9 319.8 103 319.7 102C319.9 101.3 319.6 100.4 320.1 99.8001C320.8 99.0001 321.9 98.6001 323 98.6001C324.5 98.6001 325.4 100 325.4 101.3C325.4 104.2 325.1 106.6 325.1 109.7C325.1 111.7 325.4 114.6 325.7 116.8C326 120.4 326.3 125.6 327.4 128.8V129.1C327.5 129.9 328.9 134.9 329.4 135.9ZM318.5 128.2C318.8 126.9 319.4 125.7 319.4 124.3C319.4 123.7 317.9 124.4 317.6 123.5C317.6 123.1 317.7 122.7 317.7 122.2C317.4 122.2 317.3 122.1 316.9 122.1C315.7 123.9 314 125.3 313.2 127.6C312.2 130.6 311.7 131.9 311.7 134.5C311.7 135.2 312.1 136 312.3 136.7C316 136.8 317.2 131 318.5 128.2Z" fill="black"/>
<path opacity="0.5" d="M356.8 142C356.8 143.3 355.1 143.7 354.1 143.7C350.7 143.7 350 135 349.1 129.9C348.6 133.5 343 141.7 337.9 141.7C333.8 141.7 333 138.1 333 135.5C333 130 339 117.3 346.1 117.3C347.7 117.3 350.2 118.4 351.6 119.5C353.1 120.7 353.4 122.9 353.6 125.1C354.2 129.4 354.3 132.5 355.3 136.3L355.7 138.7L356.1 140C356.5 140.6 356.8 141.3 356.8 142ZM338.4 136.8C340.5 136.6 344.7 130.5 345.8 127.2C346.4 125.7 347.9 123.2 347.9 122.1C347.5 121.9 347.2 121.7 346.8 121.7C343.1 121.7 341 128.4 340.4 129.3C339.2 131.4 338.3 134 338.3 136.3V136.6C338.3 136.7 338.4 136.8 338.4 136.8Z" fill="black"/>
<path opacity="0.5" d="M371.5 139C371.5 143.2 368.5 146.8 364.3 146.8C362.5 146.8 360.8 145.1 360.6 143.4C360.9 142.7 361 142.5 362.1 142.3C362.6 142.8 363.1 143.1 363.6 143.1C365.1 143.1 366.3 141.7 366.3 139.7C366.3 139.4 366.3 139.1 366.2 139.1C364.4 131.5 359.7 127 359.7 122.1C359.7 118.1 360.9 112.8 365.2 112.8C365.5 112.8 365.6 112.9 365.9 112.9C366.7 112.9 367.4 114 367.6 114.7C367.6 115.4 367 115.7 366.6 116.1C365.6 117.4 365.1 119.1 365.1 120.9V122.4C365.1 123.5 367 127.4 367.6 128.3L367.9 128.8C369.8 131.9 371.5 134.9 371.5 139Z" fill="black"/>
</g>
</g>
<defs>
<clipPath id="clip0">
<rect width="239.4" height="79.6" fill="white" transform="translate(66)"/>
</clipPath>
</defs>
</svg>
