<svg width="74" height="66" viewBox="0 0 74 66" fill="none" xmlns="http://www.w3.org/2000/svg">
<path d="M53.5 13C57.0899 13 60 10.0899 60 6.5C60 2.91015 57.0899 0 53.5 0C49.9101 0 47 2.91015 47 6.5C47 10.0899 49.9101 13 53.5 13Z" fill="#A3DDF2"/>
<path d="M19.7002 13C23.29 13 26.2002 10.0899 26.2002 6.5C26.2002 2.91015 23.29 0 19.7002 0C16.1103 0 13.2002 2.91015 13.2002 6.5C13.2002 10.0899 16.1103 13 19.7002 13Z" fill="#A3DDF2"/>
<path d="M36.6 65.6998C15.4 65.6998 0 49.6998 0 27.6998C0 25.2998 2 23.2998 4.4 23.2998C6.8 23.2998 8.8 25.2998 8.8 27.6998C8.8 44.8998 20.2 56.8998 36.6 56.8998C53 56.8998 64.4 44.8998 64.4 27.6998C64.4 25.2998 66.4 23.2998 68.8 23.2998C71.2 23.2998 73.2 25.2998 73.2 27.6998C73.1 49.7998 57.8 65.6998 36.6 65.6998Z" fill="url(#paint0_linear)"/>
<defs>
<linearGradient id="paint0_linear" x1="17.1325" y1="11.3062" x2="57.6359" y2="59.5763" gradientUnits="userSpaceOnUse">
<stop offset="0.3911" stop-color="#A3DDF2"/>
<stop offset="1" stop-color="#31A5D0"/>
</linearGradient>
</defs>
</svg>
