<svg width="96" height="119" viewBox="0 0 96 119" fill="none" xmlns="http://www.w3.org/2000/svg">
<path d="M26.0727 114.73C25.8545 114.512 25.7454 114.402 25.5272 114.293C25.3091 114.183 25.0909 114.183 24.8727 114.183C24.4363 114.183 24 114.293 23.7818 114.621C23.5636 114.84 23.3454 115.168 23.3454 115.387C23.3454 115.606 23.2363 116.044 23.2363 116.592C23.2363 117.139 23.2363 117.577 23.3454 117.796C23.3454 118.015 23.5636 118.343 23.7818 118.562C24 118.781 24.4363 119 24.8727 119C25.3091 119 25.7454 118.781 26.0727 118.453C26.2909 118.234 26.4 118.015 26.5091 117.796C26.5091 117.577 26.6181 117.139 26.6181 116.592C26.6181 116.044 26.6181 115.606 26.5091 115.387C26.4 115.168 26.2909 114.949 26.0727 114.73ZM25.7454 117.577C25.7454 117.796 25.6363 117.905 25.5272 118.015C25.4181 118.124 25.3091 118.234 25.2 118.234C25.0909 118.234 24.9818 118.343 24.7636 118.343C24.6545 118.343 24.5454 118.343 24.3272 118.234C24.2181 118.234 24.1091 118.124 24 118.015C23.8909 117.905 23.7818 117.796 23.7818 117.577C23.7818 117.358 23.7818 117.029 23.7818 116.592C23.7818 116.154 23.7818 115.825 23.7818 115.606C23.7818 115.387 23.8909 115.278 24 115.168C24.1091 115.059 24.2181 114.949 24.3272 114.949C24.4363 114.949 24.5454 114.84 24.7636 114.84C24.8727 114.84 24.9818 114.84 25.2 114.949C25.3091 114.949 25.4181 115.059 25.5272 115.168C25.6363 115.278 25.7454 115.497 25.7454 115.606C25.7454 115.825 25.7454 116.154 25.7454 116.592C25.8545 117.029 25.7454 117.358 25.7454 117.577Z" fill="#039ECC"/>
<path d="M16.4727 116.373C16.6909 116.154 16.6909 115.935 16.6909 115.606C16.6909 115.168 16.5818 114.84 16.2545 114.621C16.0364 114.402 15.6 114.292 15.1636 114.292H13.3091V119H14.1818V117.029H15.0545L16.0364 119H16.9091L15.8182 116.92C16.0364 116.81 16.2545 116.591 16.4727 116.373ZM14.1818 116.373V114.949H15.2727C15.4909 114.949 15.7091 115.059 15.8182 115.168C15.9273 115.278 16.0364 115.497 16.0364 115.716C16.0364 115.935 15.9273 116.154 15.8182 116.263C15.7091 116.373 15.4909 116.482 15.2727 116.482H14.1818V116.373Z" fill="#039ECC"/>
<path d="M8.72745 85.9385H3.81836V110.461H8.72745V85.9385Z" fill="#039ECC"/>
<path d="M26.8365 101.046L16.8002 85.9385H12.4365V110.461H17.3456V95.025L27.382 110.461H31.7456V85.9385H26.8365V101.046Z" fill="#039ECC"/>
<path d="M88.6909 31.091C89.6727 31.091 90.4364 30.7626 91.0909 29.9963C91.7454 29.3394 92.0727 28.4636 92.0727 27.4783C92.0727 26.493 91.7454 25.6172 91.0909 24.9604C90.4364 24.3035 89.6727 23.9751 88.6909 23.9751C87.7091 23.9751 86.9454 24.3035 86.2909 24.9604C85.6364 25.6172 85.3091 26.493 85.3091 27.4783C85.3091 28.4636 85.6364 29.3394 86.2909 29.9963C86.9454 30.7626 87.7091 31.091 88.6909 31.091ZM86.7273 25.5078C87.2727 24.9604 87.8182 24.7414 88.6909 24.7414C89.4545 24.7414 90.1091 25.0699 90.6545 25.5078C91.2 26.0551 91.4182 26.712 91.4182 27.5878C91.4182 28.4636 91.2 29.1205 90.6545 29.6678C90.1091 30.2152 89.4545 30.4342 88.6909 30.5436C87.9273 30.5436 87.2727 30.2152 86.7273 29.7773C86.1818 29.2299 85.9636 28.5731 85.9636 27.6973C85.9636 26.712 86.1818 26.0551 86.7273 25.5078Z" fill="#039ECC"/>
<path d="M88.0364 27.807H88.4727L89.6727 29.4491H90.4364L89.2364 27.6975C89.5637 27.6975 89.7818 27.588 90 27.3691C90.2182 27.1501 90.3273 26.9312 90.3273 26.4933C90.3273 25.6175 89.8909 25.2891 88.9091 25.2891H87.3818V29.5586H88.0364V27.807ZM88.0364 26.0554H88.6909C88.9091 26.0554 89.1273 26.0554 89.3455 26.1649C89.5637 26.2743 89.6727 26.3838 89.6727 26.6028C89.6727 26.8217 89.5637 27.0407 89.3455 27.1501C89.1273 27.2596 88.9091 27.2596 88.5818 27.2596H88.1455V26.0554H88.0364Z" fill="#039ECC"/>
<path d="M51.3819 1.42316C49.5274 -0.437928 46.4729 -0.437928 44.6183 1.42316L34.3638 11.7139H61.7456L51.3819 1.42316Z" fill="#039ECC"/>
<path d="M5.56381 114.292H3.81836V119H4.4729V117.139H5.56381C6.00018 117.139 6.32745 117.029 6.65472 116.701C6.982 116.482 7.09109 116.044 7.09109 115.716C7.09109 115.278 6.982 114.949 6.65472 114.73C6.32745 114.402 6.00018 114.292 5.56381 114.292ZM6.10927 116.263C6.00018 116.373 5.782 116.482 5.45472 116.482H4.4729V114.949H5.45472C5.67291 114.949 5.89109 115.059 6.10927 115.168C6.21836 115.278 6.32745 115.497 6.32745 115.716C6.32745 115.935 6.21836 116.154 6.10927 116.263Z" fill="#039ECC"/>
<path d="M81.1639 112.76H80.5093L79.9639 113.745H80.5093L81.1639 112.76Z" fill="#039ECC"/>
<path d="M91.5273 117.577L89.3455 114.292H88.6909V118.89H89.3455V115.606L91.5273 118.89H92.1818V114.292H91.5273V117.577Z" fill="#039ECC"/>
<path d="M32.7275 114.84H34.0366V118.89H34.6912V114.84H36.0003V114.292H32.7275V114.84Z" fill="#039ECC"/>
<path d="M89.8908 97.8713C90.7635 96.6671 91.1999 95.3534 91.1999 93.7112C91.1999 91.5217 90.4363 89.6606 89.0181 88.128C87.5999 86.7048 85.5272 85.9385 83.0181 85.9385H73.0908V110.461H77.9999V101.156H81.5999L86.509 110.461H92.1817L86.509 100.28C87.9272 99.8419 89.0181 99.0756 89.8908 97.8713ZM85.1999 96.0102C84.5454 96.6671 83.6726 96.886 82.5817 96.886H77.8908V90.208H82.5817C83.6726 90.208 84.5454 90.5364 85.1999 91.0838C85.8545 91.6312 86.1817 92.507 86.1817 93.4923C86.2908 94.5871 85.9635 95.4629 85.1999 96.0102Z" fill="#039ECC"/>
<path d="M72.0003 114.292H71.3457V119H72.0003V114.292Z" fill="#039ECC"/>
<path d="M94.5818 44.7755L91.2 41.3817L64.909 14.9981C64.2545 14.3413 63.3818 14.0128 62.509 14.1223C59.7818 14.4507 57.9272 14.9981 56.8363 15.8739C55.309 17.0782 54.5454 19.5961 54.5454 23.7562V72.6918C54.5454 76.9613 55.309 79.5887 56.8363 80.574C57.9272 81.2309 59.7818 81.7782 62.509 82.2161C63.3818 82.3256 64.2545 81.9972 64.909 81.4498L94.5818 51.6724C96.4363 49.7019 96.4363 46.6366 94.5818 44.7755Z" fill="#039ECC"/>
<path d="M81.6 114.73C81.3819 114.512 81.2728 114.402 81.0546 114.293C80.8364 114.183 80.6182 114.183 80.4 114.183C79.9637 114.183 79.5273 114.293 79.3091 114.621C79.0909 114.84 78.8728 115.168 78.8728 115.387C78.8728 115.606 78.7637 116.044 78.7637 116.592C78.7637 117.139 78.7637 117.577 78.8728 117.796C78.8728 118.015 79.0909 118.343 79.3091 118.562C79.5273 118.781 79.9637 119 80.4 119C80.8364 119 81.2728 118.781 81.6 118.453C81.8182 118.234 81.9273 118.015 82.0364 117.796C82.0364 117.577 82.1455 117.139 82.1455 116.592C82.1455 116.044 82.1455 115.606 82.0364 115.387C81.9273 115.168 81.8182 114.949 81.6 114.73ZM81.2728 117.577C81.2728 117.796 81.1637 117.905 81.0546 118.015C80.9455 118.124 80.8364 118.234 80.7273 118.234C80.6182 118.234 80.5091 118.343 80.2909 118.343C80.1819 118.343 80.0728 118.343 79.8546 118.234C79.7455 118.234 79.6364 118.124 79.5273 118.015C79.4182 117.905 79.3091 117.796 79.3091 117.577C79.3091 117.358 79.3091 117.029 79.3091 116.592C79.3091 116.154 79.3091 115.825 79.3091 115.606C79.3091 115.387 79.4182 115.278 79.5273 115.168C79.6364 115.059 79.7455 114.949 79.8546 114.949C79.9637 114.949 80.0728 114.84 80.2909 114.84C80.4 114.84 80.5091 114.84 80.7273 114.949C80.8364 114.949 80.9455 115.059 81.0546 115.168C81.1637 115.278 81.2728 115.497 81.2728 115.606C81.2728 115.825 81.2728 116.154 81.2728 116.592C81.2728 117.029 81.2728 117.358 81.2728 117.577Z" fill="#039ECC"/>
<path d="M52.8 115.059C52.9091 114.949 53.1272 114.84 53.4545 114.84C53.6727 114.84 53.8909 114.949 54.1091 115.059C54.2182 115.168 54.3273 115.387 54.4363 115.606H55.2C55.0909 115.168 54.9818 114.84 54.6545 114.512C54.3272 114.293 54 114.183 53.5636 114.183C53.1272 114.183 52.6909 114.293 52.4727 114.621C52.2545 114.84 52.0363 115.168 52.0363 115.387C52.0363 115.606 51.9272 116.044 51.9272 116.592C51.9272 117.139 51.9272 117.577 52.0363 117.796C52.0363 118.015 52.2545 118.343 52.4727 118.562C52.6909 118.781 53.1272 119 53.5636 119C54 119 54.3272 118.891 54.6545 118.672C54.9818 118.453 55.0909 118.015 55.2 117.577H54.4363C54.3273 117.796 54.2182 118.015 54.1091 118.124C54 118.234 53.7818 118.343 53.4545 118.343C53.1272 118.343 52.9091 118.234 52.8 118.124C52.6909 118.015 52.5818 117.796 52.5818 117.577C52.5818 117.358 52.5818 117.029 52.5818 116.592C52.5818 116.154 52.5818 115.825 52.6909 115.606C52.5818 115.387 52.6909 115.278 52.8 115.059Z" fill="#039ECC"/>
<path d="M42.4365 118.89H45.382V118.343H43.0911V116.92H45.0547V116.263H43.0911V114.84H45.382V114.292H42.4365V118.89Z" fill="#039ECC"/>
<path d="M53.6729 110.461H70.2547V106.082H58.5819V100.28H68.4001V95.9008H58.5819V90.3175H70.2547V85.9385H53.6729V110.461Z" fill="#039ECC"/>
<path d="M45.1637 110.461V90.3175H51.8183V85.9385H33.6001V90.3175H40.2546V110.461H45.1637Z" fill="#039ECC"/>
<path d="M62.509 115.059C62.618 114.949 62.8362 114.84 63.1635 114.84C63.3817 114.84 63.5999 114.949 63.818 115.059C63.9271 115.168 64.0362 115.387 64.1453 115.606H64.909C64.7999 115.168 64.6908 114.84 64.3635 114.512C64.0362 114.293 63.709 114.183 63.2726 114.183C62.8362 114.183 62.3999 114.293 62.1817 114.621C61.9635 114.84 61.7453 115.168 61.7453 115.387C61.7453 115.606 61.6362 116.044 61.6362 116.592C61.6362 117.139 61.6362 117.577 61.7453 117.796C61.7453 118.015 61.9635 118.343 62.1817 118.562C62.3999 118.781 62.8362 119 63.2726 119C63.709 119 64.0362 118.891 64.3635 118.672C64.6908 118.453 64.7999 118.015 64.909 117.577H64.1453C64.0362 117.796 63.9271 118.015 63.818 118.124C63.709 118.234 63.4908 118.343 63.1635 118.343C62.8362 118.343 62.618 118.234 62.509 118.124C62.3999 118.015 62.2908 117.796 62.2908 117.577C62.2908 117.358 62.2908 117.029 62.2908 116.592C62.2908 116.154 62.2908 115.825 62.3999 115.606C62.2908 115.387 62.2908 115.278 62.509 115.059Z" fill="#039ECC"/>
<path d="M31.091 81.3405C31.7455 81.9973 32.6183 82.3257 33.491 82.1068C36.2183 81.7784 38.1819 81.231 39.1637 80.4646C40.691 79.4794 41.4546 76.852 41.4546 72.5824V23.6468C41.4546 19.5962 40.691 16.9688 39.1637 15.7645C38.0728 14.9982 36.2183 14.4508 33.491 14.0129C32.6183 13.9035 31.7455 14.2319 31.091 14.8887L1.41825 44.7756C-0.436293 46.6367 -0.436293 49.702 1.41825 51.5631L31.091 81.3405Z" fill="#039ECC"/>
</svg>
