<svg width="95" height="92" viewBox="0 0 95 92" fill="none" xmlns="http://www.w3.org/2000/svg">
<path d="M33.0917 92C14.8833 92 0 71.3888 0 45.9605C0 20.5322 14.8833 0 33.0917 0C33.3292 0 35.7042 0 37.8417 2.13219C40.1375 4.34335 41.325 7.97597 41.325 12.9511C41.325 16.8996 40.2167 19.9004 38 22.0326C35.0708 24.7966 31.1917 24.8755 30.5583 24.7966C22.6417 24.7966 16.15 34.3519 16.15 46.0395C16.15 57.727 22.6417 67.2824 30.5583 67.2824H30.7167C34.3583 67.5983 41.2458 70.3622 41.2458 78.6541C41.325 91.8421 33.4875 92 33.0917 92ZM33.1708 3.9485C17.0208 3.9485 3.95833 22.8223 3.95833 45.9605C3.95833 69.0987 17.0208 87.9725 33.0917 87.9725C33.4083 87.9725 37.3667 87.4197 37.3667 78.4961C37.3667 72.0996 31.2708 71.1519 30.4792 71.073C20.425 71.073 12.1917 59.8592 12.1917 45.9605C12.1917 32.0618 20.425 20.7691 30.5583 20.7691H30.6375C30.6375 20.7691 33.3292 20.8481 35.2292 19.0318C36.575 17.6893 37.2875 15.6361 37.2875 12.8721C37.2875 8.1339 36.1 5.92275 35.0708 4.89614C34.1208 4.02747 33.1708 3.9485 33.1708 3.9485Z" fill="url(#paint0_linear)"/>
<path d="M39.7421 51.0145V54.4892H27.6296V51.7252L33.488 46.2763C34.0421 45.7235 34.438 45.2497 34.5963 44.9338C34.7546 44.539 34.913 44.1441 34.913 43.8282C34.913 43.3544 34.7546 42.9596 34.438 42.6437C34.1213 42.3278 33.5671 42.2488 32.9338 42.2488C32.3796 42.2488 31.8255 42.4068 31.3505 42.6437C30.8755 42.8806 30.4796 43.2754 30.163 43.7493L26.7588 41.854C27.3921 40.8274 28.1838 40.0377 29.2921 39.4849C30.4005 38.9321 31.6671 38.6162 33.1713 38.6162C34.3588 38.6162 35.388 38.7741 36.338 39.169C37.288 39.5638 38.0005 40.1166 38.4755 40.8274C38.9505 41.5381 39.2671 42.4068 39.2671 43.3544C39.2671 44.2231 39.1088 45.0128 38.713 45.7235C38.3171 46.4342 37.6838 47.3029 36.5755 48.2505L33.6463 50.9355H39.7421V51.0145Z" fill="url(#paint1_linear)"/>
<path d="M55.5756 51.4884H53.2798V54.4892H49.0048V51.4884H40.7715V48.6454L47.7382 38.9321H52.3298L45.9965 48.0137H49.1631V45.4077H53.359V48.0137H55.6548V51.4884H55.5756Z" fill="url(#paint2_linear)"/>
<path d="M62.7003 35.7734H66.5003L59.1378 56.7005H55.417L62.7003 35.7734Z" fill="url(#paint3_linear)"/>
<path d="M78.9296 38.9321V41.6961L73.388 54.4892H68.5588L73.7838 42.4068H69.6671V44.7759H65.9463V38.9321H78.9296V38.9321Z" fill="url(#paint4_linear)"/>
<path d="M49.2414 85.7612C47.4998 85.6032 46.1539 84.1028 46.3123 82.3655C46.4706 80.6281 47.9748 79.2856 49.7164 79.4436C51.4581 79.6015 52.8039 81.102 52.6456 82.8393C52.5664 84.4977 51.1414 85.7612 49.4789 85.7612C49.3998 85.7612 49.3206 85.7612 49.2414 85.7612ZM58.8206 82.3655C58.4248 80.7071 59.5331 78.9698 61.1956 78.5749C62.8581 78.1801 64.5998 79.2856 64.9956 80.944C65.3914 82.6024 64.2831 84.3397 62.6206 84.7346C62.3831 84.8135 62.1456 84.8135 61.9081 84.8135C60.4831 84.8925 59.2164 83.8659 58.8206 82.3655ZM70.7748 78.7328C69.9039 77.2324 70.3789 75.2582 71.8831 74.3895C73.3873 73.5208 75.2873 73.9947 76.2373 75.4951C77.1081 76.9955 76.6331 78.8908 75.1289 79.8384C74.6539 80.1543 74.0998 80.3122 73.5456 80.3122C72.4373 80.3122 71.4081 79.7595 70.7748 78.7328ZM81.0664 71.5466C79.7206 70.362 79.5623 68.3878 80.7498 67.1243C81.9373 65.7818 83.9164 65.7028 85.1831 66.8084C86.5289 67.914 86.6873 69.9672 85.4998 71.2307C84.8664 71.9414 83.9956 72.3363 83.1248 72.3363C82.4123 72.3363 81.6206 72.0994 81.0664 71.5466ZM88.4289 61.5174C86.7664 60.8856 85.9748 59.0693 86.6081 57.411C87.2414 55.7526 89.0623 54.9629 90.7248 55.5947C92.3873 56.2264 93.1789 58.0427 92.5456 59.7011C92.0706 60.9646 90.8831 61.7543 89.6164 61.7543C89.1414 61.7543 88.8248 61.6753 88.4289 61.5174ZM88.6664 46.3552C88.6664 46.2762 88.6664 46.2762 88.6664 46.1972C88.6664 44.4599 90.0914 43.0384 91.8331 43.0384C93.5748 43.0384 94.9998 44.4599 94.9998 46.1972V46.2762V46.3552C94.9998 48.0925 93.5748 49.514 91.8331 49.514C90.0914 49.514 88.6664 48.0925 88.6664 46.3552ZM86.5289 35.1414C85.8956 33.4831 86.6873 31.6668 88.3498 31.035C90.0123 30.4032 91.8331 31.1929 92.4664 32.8513C93.0998 34.5097 92.3081 36.326 90.6456 36.9577C90.2498 37.1157 89.8539 37.1947 89.5373 37.1947C88.1914 37.1947 87.0039 36.405 86.5289 35.1414ZM80.6706 25.5071C79.4831 24.1646 79.6414 22.1904 80.9873 21.0848C82.3331 19.9002 84.3123 20.0582 85.4206 21.4007C86.6081 22.7432 86.4498 24.7174 85.1039 25.823C84.4706 26.3758 83.7581 26.6127 83.0456 26.6127C82.1748 26.5337 81.2248 26.2178 80.6706 25.5071ZM71.8039 18.2419C70.2998 17.3732 69.7456 15.3989 70.6956 13.8985C71.5664 12.3981 73.5456 11.9243 75.0498 12.7929C76.5539 13.6616 77.1081 15.6359 76.1581 17.1363C75.6039 18.1629 74.4956 18.7157 73.3873 18.7157C72.8331 18.6367 72.2789 18.5577 71.8039 18.2419ZM61.1164 14.0565C59.3748 13.6616 58.3456 12.0032 58.7414 10.2659C59.1373 8.52856 60.7998 7.50195 62.5414 7.8968C64.2039 8.29165 65.3123 9.95002 64.9164 11.6874C64.5998 13.1088 63.2539 14.1354 61.8289 14.1354C61.5914 14.1354 61.3539 14.1354 61.1164 14.0565ZM46.2331 10.3449C46.0748 8.60753 47.3414 7.1071 49.0831 6.94916C50.8248 6.79122 52.3289 8.13371 52.4873 9.87105C52.6456 11.6084 51.2998 13.1088 49.5581 13.2668C49.4789 13.2668 49.3998 13.2668 49.3206 13.2668C47.7373 13.2668 46.3123 12.0032 46.2331 10.3449Z" fill="url(#paint5_linear)"/>
<defs>
<linearGradient id="paint0_linear" x1="3.92089" y1="16.7445" x2="53.8781" y2="76.4296" gradientUnits="userSpaceOnUse">
<stop offset="0.2266" stop-color="#A3DDF2"/>
<stop offset="1" stop-color="#31A5D0"/>
</linearGradient>
<linearGradient id="paint1_linear" x1="27.399" y1="40.9337" x2="39.1453" y2="54.9672" gradientUnits="userSpaceOnUse">
<stop offset="0.2266" stop-color="#A3DDF2"/>
<stop offset="1" stop-color="#31A5D0"/>
</linearGradient>
<linearGradient id="paint2_linear" x1="43.9183" y1="42.1419" x2="53.8461" y2="54.0029" gradientUnits="userSpaceOnUse">
<stop offset="0.2266" stop-color="#A3DDF2"/>
<stop offset="1" stop-color="#31A5D0"/>
</linearGradient>
<linearGradient id="paint3_linear" x1="56.5125" y1="40.9989" x2="65.3261" y2="51.5287" gradientUnits="userSpaceOnUse">
<stop offset="0.2266" stop-color="#A3DDF2"/>
<stop offset="1" stop-color="#31A5D0"/>
</linearGradient>
<linearGradient id="paint4_linear" x1="66.7311" y1="38.3528" x2="77.4287" y2="51.1334" gradientUnits="userSpaceOnUse">
<stop offset="0.2266" stop-color="#A3DDF2"/>
<stop offset="1" stop-color="#31A5D0"/>
</linearGradient>
<linearGradient id="paint5_linear" x1="36.0501" y1="17.1058" x2="83.1092" y2="73.3281" gradientUnits="userSpaceOnUse">
<stop offset="0.2266" stop-color="#A3DDF2"/>
<stop offset="1" stop-color="#31A5D0"/>
</linearGradient>
</defs>
</svg>
