<svg width="127" height="87" viewBox="0 0 127 87" fill="none" xmlns="http://www.w3.org/2000/svg">
<path d="M127 55.2478V54.8725C127 54.1218 127 52.9959 126.178 51.945C125.206 50.6689 124.084 50.2935 122.813 50.819C122.439 50.9691 122.14 50.9691 121.542 50.6689C119.971 49.693 118.251 49.8432 116.831 50.9691C116.756 50.9691 116.531 51.1192 116.008 51.1943C115.485 51.2694 114.961 51.2694 114.438 51.3444H114.288C113.391 51.4195 112.419 51.4946 111.521 51.6447C110.474 51.8699 109.278 52.4704 108.381 53.2961C107.633 53.9717 107.558 54.9475 107.558 55.6231C107.558 55.7733 107.558 55.9234 107.558 55.9985C107.558 56.2236 107.483 56.3738 107.483 56.599C107.483 56.8242 107.483 56.9743 107.409 57.1244C107.035 58.4756 106.661 59.9769 106.287 61.4031C106.063 61.5532 105.838 61.6283 105.539 61.7784C104.866 62.1538 104.268 62.454 103.67 62.454C102.772 62.454 101.651 62.5291 100.679 62.9795C99.9309 63.2797 99.1831 63.4299 98.211 63.58C97.3884 63.7301 96.4911 63.8802 95.5938 64.2556C94.9956 64.4808 94.9208 64.4057 94.6217 64.0304C93.7991 62.9795 92.6027 62.454 91.2567 62.454C90.3593 62.454 89.6864 61.9286 89.1629 60.8026C88.2656 59.001 87.2935 57.2746 86.3214 55.6231C85.9475 55.0226 85.6484 54.4221 85.2745 53.8216C83.9285 51.4195 83.5546 49.693 83.9285 47.8915C84.078 47.1408 84.078 46.4652 83.8537 45.9398C83.5546 45.1891 83.6294 44.2884 83.6294 43.2375C83.6294 42.7871 83.6294 42.3367 83.6294 41.8863C83.6294 41.6611 83.6294 41.4359 83.7042 41.2858C84.2276 39.9346 84.9006 38.5084 85.424 37.1572L85.7232 36.4066C86.2466 35.1305 86.3961 34.1546 85.1997 33.1788L83.8537 32.278H83.7789C82.1338 31.2271 80.4139 30.1762 78.4697 29.5757C78.0958 29.4256 78.0958 29.4256 78.0211 29.2754C77.7967 28.75 77.5724 28.2245 77.3481 27.7741L76.8994 26.8733C76.5255 26.0476 76.1516 25.2219 75.6282 24.3962C74.357 22.2944 73.0858 20.2677 71.8893 18.4661C71.5154 17.9407 71.0668 17.4152 70.3938 16.9648C69.7208 16.4394 68.8982 15.9139 67.9261 15.4635C66.8045 14.9381 65.6828 14.3375 64.4116 13.8872C63.589 13.5869 62.6169 13.737 61.4205 14.3375C60.5231 14.7879 59.4015 15.6136 58.7285 16.6646C57.9807 16.2892 57.2329 15.9139 56.4852 15.5386C56.2608 14.1874 55.5878 13.1365 54.9896 12.1607C54.8401 11.8604 54.6157 11.5601 54.4662 11.2599C53.195 8.85782 51.1012 7.65678 49.3065 6.60588C48.6335 6.23056 48.1101 5.9303 47.5866 5.55497C47.2128 5.32978 46.7641 5.17965 46.3154 5.17965H43.773C42.2027 5.17965 40.7071 5.17965 39.1368 5.17965C38.389 5.17965 37.4917 5.7051 37.043 6.45575H34.4258C33.005 6.45575 31.5843 6.45575 30.1635 6.45575C29.341 6.45575 28.5932 6.30562 27.9202 6.08043C24.4056 4.57913 20.4424 3.22797 16.7036 1.8768L16.2549 1.72667C16.1801 1.72667 16.0306 1.65161 15.881 1.57654C14.8341 -0.0748801 13.1142 0.000184764 12.1421 0.0752495C10.8709 0.150314 9.67448 0.225379 8.40326 0.300444H7.58071C7.35638 0.225379 7.13205 0.225379 6.90771 0.225379L3.3184 0.675767C2.27151 0.825897 1.59851 1.27628 1.22463 2.02693C0.85074 2.77758 0.925518 3.60329 1.52374 4.57913C1.67329 4.80433 1.82285 5.02952 1.9724 5.25471C2.12196 5.40484 2.19673 5.55497 2.27151 5.7051L2.49584 6.00536C2.6454 6.30562 2.86973 6.75601 2.86973 6.9812C2.94451 8.4825 3.61751 9.60847 4.21573 10.6594L4.51484 11.1848C5.26261 12.4609 6.08516 13.8121 6.23472 15.1633C6.38427 16.064 6.68338 18.6913 9.52493 19.5921C9.5997 19.6671 9.67448 19.6671 9.74926 19.7422C10.7214 20.1175 11.4691 20.9432 12.2917 21.844L12.3665 21.9191C10.7961 21.844 10.0484 22.5947 9.5997 24.4713C9.5997 24.6214 9.52493 24.7715 9.52493 24.9217C9.22582 25.8224 9.22582 27.0235 10.7961 28.1495C11.6935 28.75 12.2917 29.2754 12.8151 29.8759C13.4881 30.6266 14.0864 31.152 14.8341 31.4523C15.3576 31.6775 15.8062 31.8276 16.3297 32.0528C16.7036 32.2029 17.0774 32.3531 17.5261 32.5032C17.6757 32.5783 17.9748 32.6533 18.0496 32.7284C18.7973 33.404 19.7694 34.3048 20.592 35.3557C21.1902 36.0312 21.0407 36.1814 20.8911 36.4816C20.6668 36.7819 20.5172 37.1572 20.3677 37.5325C20.0685 38.1331 19.6199 39.184 20.1433 40.2349C20.3677 40.6102 20.6668 40.9105 20.9659 41.1356V42.0364L21.6389 41.4359C21.938 41.511 22.1623 41.586 22.3866 41.586C22.8353 41.6611 23.2092 41.8863 23.8074 42.4868C24.63 43.3125 25.3777 44.1382 26.2003 44.8889C26.7985 45.4143 27.4715 46.0899 28.4436 46.4652C28.5932 46.5403 28.668 46.5403 28.8175 47.0658C29.4905 49.618 30.6122 50.3686 33.1546 49.9182C33.9024 49.7681 34.6502 49.3928 35.1736 48.7172C35.5475 48.2668 35.8466 47.8164 36.0709 47.4411L36.2953 47.1408C37.4917 45.2642 37.043 43.9881 36.0709 42.712C34.9493 41.2107 33.9024 39.7094 33.005 38.3582C32.7059 37.9079 32.1077 37.0071 30.7617 36.7819C30.6869 35.8061 30.2383 35.1305 29.9392 34.605C29.8644 34.4549 29.7896 34.3048 29.7148 34.1546L29.6401 34.0045C29.5653 33.8544 29.4157 33.5541 29.4157 33.479C28.8923 30.3263 27.5463 28.1494 25.303 26.8733C24.7047 26.5731 24.4804 26.1978 24.3309 25.5222C24.3309 25.4471 24.3309 25.3721 24.2561 25.297C24.4056 25.4471 24.4804 25.5972 24.63 25.7474C24.9291 26.1227 25.2282 26.498 25.6769 26.7983L25.8264 26.8733C26.1255 27.0985 26.7237 27.5489 27.3967 27.624C27.4715 29.1253 28.5184 29.8759 29.0418 30.3263C29.4157 30.6266 29.7896 31.077 30.0887 31.4523C30.6122 32.278 31.2852 32.8035 32.0329 33.1037C32.0329 33.1788 31.9582 33.2538 31.9582 33.2538C31.7338 33.8544 31.2104 35.5058 32.7807 36.7819L33.3042 37.2323C33.8276 37.6827 34.351 38.1331 34.9493 38.5084C35.3979 38.8086 35.8466 38.9588 36.2953 39.1089C36.4448 39.184 36.6691 39.259 36.7439 39.3341C36.8935 39.4092 37.1178 39.5593 37.1926 39.6344C38.2395 40.8354 39.3611 42.0364 40.408 43.1624L40.4828 43.2375C41.3801 44.2133 42.2775 45.1891 43.1748 46.165C43.3991 46.3902 43.6982 46.6904 43.9226 46.9156L43.9973 46.9907C44.2217 47.1408 44.3712 47.366 44.5956 47.5912L44.8199 47.8164C46.0911 49.2426 47.2128 50.5187 47.2875 52.1702C47.2875 52.4704 47.3623 52.7707 47.5866 53.0709C48.0353 53.8966 47.8858 54.0468 47.7362 54.272C47.2875 54.7224 46.9884 55.5481 46.9884 56.2987V56.7491C46.9884 59.001 47.0632 62.0787 50.0543 63.9553C50.1291 63.9553 50.2039 64.1054 50.2786 64.1805C50.4282 64.3306 50.5777 64.5558 50.7273 64.6309L50.8021 64.706C51.1012 65.0062 51.7742 65.6067 52.5967 65.5317C52.8958 65.5317 53.1202 65.7569 53.7184 66.3574C53.868 66.5075 54.0175 66.7327 54.2418 66.8828L54.6157 67.2582C55.5878 68.234 56.6347 69.36 58.4294 69.7353C58.8033 69.8104 59.2519 69.8854 59.6258 70.0356L59.8501 70.1106C60.1493 70.1857 60.5231 70.2607 60.897 70.3358C62.0187 70.561 62.7665 70.7111 63.4395 71.3867C64.3368 72.3626 65.608 73.1132 67.3279 73.8639C68.973 74.5394 70.6181 75.14 72.338 75.7405C73.0858 75.9657 73.8335 76.2659 74.5065 76.5662C74.6561 76.6413 74.8056 76.6412 74.9552 76.7163C75.03 76.7163 75.1047 76.7914 75.1795 76.7914C76.0769 77.6171 77.1237 78.0675 78.0958 78.5179H78.1706C78.395 78.5929 78.6193 78.7431 78.8436 78.8181C81.0869 79.869 83.4798 80.3194 85.7232 80.7698L86.3214 80.9199C87.0691 81.0701 88.0413 80.9199 88.7142 80.2444C89.0134 79.9441 89.5368 79.7189 90.135 79.4937C90.3593 79.4186 90.5837 79.3436 90.808 79.1935C92.154 78.5929 93.6496 79.1935 95.1451 79.794C95.6686 80.0192 96.2668 80.6197 96.865 81.2202L96.9398 81.2953C97.0893 81.4454 97.3137 81.6706 97.4632 81.8207C98.2858 82.5714 99.1083 83.3971 99.8561 84.2228L101.202 85.574C101.426 85.8742 101.726 86.1745 102.099 86.3997C102.698 86.8501 103.52 86.9251 104.118 86.6999L104.418 87.0002V86.6249C105.091 86.2495 105.464 85.4989 105.464 84.7482C105.464 84.1477 105.464 83.6223 105.39 83.0218C105.39 82.7215 105.315 82.3462 105.315 82.0459C105.315 81.8207 105.315 81.5205 105.24 81.2953C105.24 81.0701 105.165 80.6197 105.165 80.5446C105.464 79.794 105.988 79.1184 106.437 78.668C106.586 78.668 106.81 78.668 106.96 78.668C107.259 78.668 107.558 78.668 107.857 78.668C107.932 78.668 107.932 78.668 108.007 78.668H108.231C110.474 78.5929 111.596 77.542 111.746 75.2901C111.82 73.7888 110.998 72.888 110.549 72.4376C110.4 72.2875 110.325 72.1374 110.175 72.0623C111.147 72.0623 112.194 72.0623 113.166 72.0623C115.709 72.2124 116.98 70.7862 117.578 69.5852C117.653 69.435 117.803 69.2098 117.952 69.0597C118.027 69.1348 118.102 69.1348 118.177 69.2098C118.55 69.435 118.85 69.7353 119.223 69.9605L119.597 70.2607C120.046 70.561 120.569 70.6361 121.093 70.4859C121.616 70.3358 121.99 69.9605 122.215 69.435L122.439 68.9096C122.588 68.4592 122.813 68.0839 122.888 67.6335C123.187 66.7327 123.486 65.6067 123.71 64.3306C123.86 63.58 124.009 62.8293 124.383 62.454C124.832 61.8535 125.131 60.8777 124.682 60.052C124.757 59.8268 124.907 59.6016 124.981 59.3013L125.056 59.0761C125.056 59.001 125.131 58.7008 125.206 58.5507C127.075 57.4247 127 55.8483 127 55.2478ZM121.542 61.0278C121.018 61.9286 120.869 62.9044 120.719 63.8052C120.569 64.5558 120.42 65.3065 120.196 65.9821C120.121 65.907 120.046 65.907 119.971 65.8319C118.625 64.8561 117.13 65.0813 116.083 66.3574L115.858 66.6576C115.559 67.033 115.185 67.4834 114.886 68.0088C114.662 68.4592 114.438 68.6844 113.69 68.6093C112.419 68.5343 111.073 68.5343 109.876 68.6093H109.278C108.904 68.6093 107.932 68.6093 107.259 69.36C106.885 69.7353 106.736 70.1857 106.661 70.561L105.689 70.9363L106.661 71.3117C106.661 71.3867 106.661 71.3867 106.661 71.4618C106.736 72.9631 107.558 73.9389 108.381 74.7646C108.605 74.9898 108.605 75.0649 108.605 75.0649C108.605 75.14 108.605 75.14 108.605 75.215H108.53H108.306C108.156 75.215 108.082 75.215 107.932 75.215C107.782 75.215 107.558 75.215 107.334 75.215C106.586 75.215 105.539 75.14 104.717 75.8155C103.745 76.5662 102.922 77.7672 102.324 79.1184C101.95 79.869 102.025 80.6947 102.099 81.3703C101.426 80.6947 100.753 80.0192 100.006 79.3436C99.8561 79.1934 99.6318 78.9683 99.4074 78.7431C98.6597 77.9174 97.7623 77.0916 96.5659 76.5662C95.2947 76.0407 93.7991 75.4402 92.154 75.4402C91.2567 75.4402 90.4341 75.5903 89.6116 75.9657C89.462 76.0407 89.2377 76.1158 89.0134 76.1909C88.2656 76.4911 87.443 76.7914 86.6953 77.3919L86.4709 77.3168C84.3024 76.8664 82.2834 76.4911 80.3392 75.5903C80.0401 75.4402 79.741 75.3651 79.4418 75.215C78.6193 74.8397 77.9463 74.6145 77.4976 74.089C76.9742 73.6387 76.376 73.4135 75.9273 73.2633C75.8525 73.2633 75.7777 73.1883 75.703 73.1883C75.03 72.9631 74.2822 72.6628 73.6092 72.4376L73.4596 72.3626C72.0389 71.8371 70.2442 71.2366 68.6739 70.561C67.4027 70.0356 66.5053 69.435 65.9071 68.9096C64.5611 67.5584 62.916 67.1831 61.57 66.8828C61.2709 66.8078 60.897 66.7327 60.5979 66.6576H60.5231C60.0745 66.5826 59.6258 66.4325 59.1772 66.3574C58.4294 66.2073 57.8312 65.6067 57.0834 64.8561L56.7843 64.5558C56.6347 64.4057 56.5599 64.2556 56.4104 64.1805L56.3356 64.0304C55.6626 63.2797 54.6905 62.3039 53.195 62.1538C53.1202 62.0787 53.0454 62.0036 53.0454 61.9286L52.9706 61.8535C52.7463 61.6283 52.4472 61.253 51.9985 60.9527C50.6525 60.0519 50.5777 58.8509 50.503 56.599V56.2987C51.2507 55.3979 51.9985 53.8216 50.8021 51.5696C50.503 48.9424 48.9326 47.0658 47.5119 45.4894L47.2875 45.2642C46.9884 44.9639 46.7641 44.6637 46.465 44.3634C46.2407 44.2133 46.0911 43.9881 45.8668 43.7629C44.9694 42.7871 44.0721 41.7362 43.1 40.6853L42.7261 40.3099C41.754 39.259 40.7819 38.2081 39.8846 37.1572C39.5107 36.7819 39.062 36.4066 38.4638 36.1063C38.1647 35.9562 37.8656 35.8811 37.5665 35.731C37.3421 35.6559 37.1178 35.5809 36.9682 35.5058C36.5196 35.2055 36.0709 34.8302 35.5475 34.3798L35.3231 34.2297C35.3979 33.9294 35.5475 33.6292 35.6223 33.1788C35.8466 31.4523 35.5475 30.4014 33.5285 29.8009C33.3789 29.7258 33.2294 29.7258 33.0798 29.4256C32.6312 28.6749 31.9582 27.9993 31.2852 27.4739C31.0608 27.3237 30.9861 27.2487 30.9113 27.1736C30.8365 25.3721 29.7896 24.2461 28.1445 24.096C28.0697 24.096 28.0697 24.0209 27.995 24.0209L27.8454 23.9458C27.6958 23.7957 27.4715 23.5705 27.322 23.3453C26.9481 22.8949 26.4994 22.3695 25.8264 21.9941C25.303 21.0934 24.7047 20.2677 24.1065 19.5921C23.6579 19.0666 23.284 18.6162 22.9849 18.0908C22.8353 17.8656 22.7605 17.3401 22.6858 16.8897L22.611 16.5144C22.3866 15.1633 22.1623 13.3617 20.8911 11.8604C20.8163 11.7853 20.8163 11.7103 20.7415 11.5601C20.4424 10.7344 19.919 9.23314 18.1991 8.78276C17.5261 8.03211 16.6288 7.73185 16.0306 7.58172C15.881 7.50666 15.5819 7.43159 15.5071 7.43159C14.9837 6.90614 14.1611 6.75601 13.4881 7.05627C12.516 7.50666 12.0674 8.33237 12.2169 9.15808L12.2917 9.38327C12.3665 9.83366 12.516 10.5092 12.8151 11.1098C13.1142 11.7103 13.2638 12.1607 13.189 12.6111C12.9647 14.863 14.3107 16.4394 14.7593 16.8897C15.0585 17.19 15.3576 17.4903 15.5819 17.7905C16.1801 18.316 16.6288 18.8414 16.8531 19.4419C17.1522 20.1926 17.6757 20.643 18.0496 20.9432C18.1243 21.0183 18.1991 21.0183 18.1991 21.0934C18.4982 21.3186 18.7973 21.6188 19.0964 21.9191C19.5451 22.2944 19.9938 22.6697 20.3677 23.0451C20.3677 23.1201 20.3677 23.2702 20.4424 23.3453V23.4954C20.5172 23.7957 20.5172 24.171 20.592 24.5463C20.6668 24.9967 20.6668 25.5222 20.7415 25.9726C21.0407 27.6991 21.8632 28.9001 23.4335 29.7258C24.7047 30.4765 25.4525 31.7526 25.8264 33.8544C25.9012 34.4549 26.2003 34.9803 26.3499 35.3557L26.4246 35.5809C26.4994 35.8061 26.649 36.0312 26.7985 36.2564C27.0228 36.6318 27.0976 36.857 27.1724 37.0071C27.2472 38.5084 28.2941 39.7094 29.8644 40.0847C29.8644 40.1598 29.9392 40.1598 29.9392 40.2349C30.8365 41.586 31.9582 43.1624 33.1546 44.7387C33.2294 44.8889 33.3042 44.9639 33.3789 45.039C33.3789 45.1141 33.3042 45.1891 33.2294 45.3393L33.005 45.7146C32.8555 46.0149 32.7059 46.24 32.4816 46.4652C32.4068 46.5403 32.4068 46.5403 32.332 46.5403C32.2573 46.5403 32.1825 46.5403 32.1077 46.6154C32.0329 46.4652 32.0329 46.3151 31.9582 46.165C31.7338 45.2642 31.2104 43.9881 29.6401 43.3125C29.2662 43.1624 28.8175 42.7871 28.4436 42.4117C27.6958 41.7362 26.9481 40.9855 26.2003 40.1598C25.4525 39.3341 24.63 38.8086 23.7326 38.5084C23.7326 38.4333 23.8074 38.4333 23.8074 38.3582C24.8543 36.6318 24.63 34.8302 23.1344 33.1788C22.3119 31.7526 21.265 30.7767 20.4424 30.0261C19.919 29.5006 19.246 29.2754 18.7973 29.0502C18.4234 28.9001 17.9748 28.75 17.5261 28.5998C17.0774 28.4497 16.6288 28.2996 16.1801 28.0744C16.0306 27.9993 15.8062 27.8492 15.4323 27.4739C14.9089 26.7983 14.1611 26.1227 13.3386 25.5222C13.4881 25.5222 13.6377 25.5972 13.862 25.5972C14.6846 25.6723 15.5071 25.297 16.1053 24.6214C16.7036 23.8708 16.9279 22.97 16.7036 22.1443L16.6288 21.9191C16.554 21.5438 16.3297 20.9432 15.881 20.4178C15.5819 20.1175 15.208 19.7422 14.9089 19.3669C13.9368 18.316 12.8899 17.1149 11.2448 16.4394C11.0953 16.3643 10.9457 16.2892 10.7214 16.2142C10.2727 16.064 9.89881 15.989 9.74926 14.6378C9.45015 12.6111 8.47804 10.8846 7.58071 9.38327L7.2816 8.85782C6.83294 8.03211 6.45905 7.43159 6.38427 6.75601C6.23472 5.78017 5.86083 5.02952 5.48694 4.429L5.33739 4.05368C5.33739 3.97861 5.26261 3.97861 5.26261 3.90355L6.75816 3.75342C6.90771 3.75342 7.05727 3.82848 7.2816 3.75342L8.6276 3.67836C9.82403 3.60329 11.0953 3.52823 12.3665 3.45316C12.516 3.45316 12.8899 3.45316 13.0395 3.45316C13.5629 4.35394 14.535 4.72926 15.208 4.95446L15.5071 5.10458C18.8721 6.30562 23.1344 7.80691 27.1724 9.23314C28.1445 9.5334 29.2662 9.7586 30.3878 9.7586C32.0329 9.83366 33.7528 9.83366 35.3979 9.7586H37.6412C38.9872 9.83366 39.8098 9.23314 40.1837 8.4825C41.4549 8.4825 42.8009 8.4825 44.0721 8.4825H46.2407C46.7641 8.85782 47.3623 9.15808 47.8858 9.45834C49.5309 10.3591 50.9516 11.1848 51.6994 12.6861C51.9237 13.0614 52.1481 13.4368 52.3724 13.8121C52.8958 14.6378 53.3445 15.3885 53.4193 16.1391C53.5688 17.4152 54.7653 18.1658 54.9896 18.316C55.8869 18.8414 56.8591 19.2918 57.7564 19.7422L58.2798 19.9674C58.878 20.2677 59.7006 20.643 60.5231 20.2677C61.4205 19.8923 61.6448 19.0666 61.8691 18.316C61.9439 18.1658 62.4674 17.6404 63.2151 17.2651C63.4395 17.19 63.589 17.1149 63.6638 17.1149C64.6359 17.4903 65.608 17.9407 66.5801 18.4661C67.3279 18.8414 68.0009 19.2918 68.5991 19.7422C68.973 20.0425 69.1226 20.1926 69.1973 20.2677C70.319 21.9941 71.5902 24.0209 72.8614 26.0476C73.3101 26.7232 73.684 27.5489 73.9831 28.2245L74.4318 29.2004C74.6561 29.5757 74.8056 29.951 74.9552 30.3263C75.3291 31.5274 76.2264 32.3531 77.5724 32.8035C79.1427 33.3289 80.7131 34.3048 82.2086 35.2055L82.5825 35.4307L82.5077 35.6559C81.9095 37.0822 81.2365 38.5084 80.7131 39.9346C80.4887 40.5351 80.3392 41.2107 80.3392 41.8863C80.3392 42.2616 80.3392 42.6369 80.3392 42.9372V43.0123C80.2644 44.2133 80.2644 45.4894 80.7131 46.9156C80.7131 46.9156 80.7131 46.9907 80.7131 47.0658C79.9653 50.5187 81.2365 53.3712 82.4329 55.473C82.7321 55.9985 83.0312 56.5239 83.3303 56.9743L83.4798 57.2746C84.4519 58.8509 85.424 60.5023 86.1718 62.2288C87.2935 64.4808 89.1629 65.8319 91.3315 65.8319H91.4062C91.7801 65.8319 91.8549 65.907 92.0045 66.1322C93.2757 67.7085 94.846 68.1589 96.865 67.4834C97.4632 67.2582 98.211 67.108 98.9588 66.9579C99.9309 66.8078 101.053 66.5826 102.174 66.0571C102.623 65.907 103.296 65.8319 103.969 65.8319C105.39 65.7569 106.437 65.2314 107.409 64.6309C107.633 64.4808 107.857 64.3306 108.156 64.2556C108.829 63.9553 109.428 63.2047 109.652 62.454C110.101 60.8026 110.549 59.0761 110.848 57.8C110.923 57.4247 110.998 57.0494 110.998 56.7491C110.998 56.599 110.998 56.4488 111.073 56.3738C111.073 56.1486 111.147 55.9234 111.147 55.6231C111.147 55.5481 111.147 55.473 111.147 55.473C111.521 55.1727 111.97 54.9475 112.269 54.8725C113.017 54.7224 113.765 54.6473 114.662 54.6473C115.335 54.5722 115.933 54.5722 116.531 54.4972C117.578 54.347 118.476 54.0468 119.074 53.5213C119.373 53.2961 119.448 53.2961 119.822 53.4463C121.018 54.1969 122.289 54.4221 123.561 54.0468C123.561 54.1969 123.561 54.4972 123.561 54.7224V55.0977C123.561 55.3979 123.561 55.473 123.561 55.473C123.561 55.473 123.561 55.473 123.411 55.5481C122.439 56.1486 122.215 57.2746 122.065 57.9501V58.1003C122.065 58.1753 121.99 58.2504 121.99 58.3255C121.691 58.926 121.168 59.9769 121.542 61.0278ZM16.7783 11.7853C16.9279 11.8604 17.1522 11.9355 17.3018 11.9355C17.3766 12.0856 17.5261 12.4609 17.6009 12.6111C17.7504 12.9113 17.9 13.3617 18.2739 13.8121C18.7973 14.4126 19.0217 15.1633 19.1712 16.1391C18.8721 15.7638 18.4982 15.4635 18.1991 15.0882C17.9748 14.863 17.7504 14.6378 17.6009 14.4126C16.8531 13.5869 16.8531 13.0614 16.8531 12.6861C16.7783 12.536 16.7783 12.1607 16.7783 11.7853Z" fill="url(#paint0_linear)"/>
<defs>
<linearGradient id="paint0_linear" x1="63.9965" y1="0.000184751" x2="63.9965" y2="87.0253" gradientUnits="userSpaceOnUse">
<stop offset="0.3181" stop-color="#A3DDF2"/>
<stop offset="1" stop-color="#31A5D0"/>
</linearGradient>
</defs>
</svg>
