<svg width="59" height="145" viewBox="0 0 59 145" fill="none" xmlns="http://www.w3.org/2000/svg">
<g clip-path="url(#clip0)">
<path d="M59 143.735V1.26527C59 0.556719 58.4415 0 57.7307 0H17.0095C16.5525 0 16.1463 0.202443 15.9432 0.60733L0.203141 26.0646C-0.050732 26.4695 -0.050732 26.925 0.152366 27.3298C0.355464 27.7347 0.812435 27.9878 1.26941 27.9878H29.4493V143.684C29.4493 144.342 29.9062 144.949 30.5663 145C31.3279 145.051 31.988 144.494 31.988 143.735V26.7225C31.988 26.014 31.4295 25.4572 30.7186 25.4572H3.55426L17.7204 2.53054H56.4613V143.735C56.4613 144.443 57.0198 145 57.7307 145C58.4415 145 59 144.443 59 143.735Z" fill="white"/>
</g>
<defs>
<clipPath id="clip0">
<rect width="59" height="145" fill="white"/>
</clipPath>
</defs>
</svg>
