<svg width="97" height="139" viewBox="0 0 97 139" fill="none" xmlns="http://www.w3.org/2000/svg">
<path d="M63.3419 138.177H1.22661C0.539707 138.177 0 137.659 0 137V124.952C0 124.623 0.147193 124.34 0.34345 124.105L43.0784 82.313C53.2838 72.4298 60.1528 64.382 63.4891 58.405C66.7764 52.5222 68.4446 47.157 68.4446 42.4507C68.4446 37.6503 66.8255 33.7441 63.4891 30.6379C60.1528 27.4847 55.9823 25.9787 50.6834 25.9787C45.3844 25.9787 41.0668 27.8142 37.5341 31.6263C34.0015 35.4384 32.088 40.7094 31.8427 47.2982C31.8427 47.91 31.2539 48.4277 30.6161 48.4277H4.95549C4.61204 48.4277 4.31765 48.2865 4.07233 48.0512C3.82701 47.8159 3.72888 47.4865 3.72888 47.2041C4.46485 32.6146 9.32221 20.99 18.1538 12.6129C27.0344 4.23566 38.5645 0 52.4006 0C60.9378 0 68.6409 1.74133 75.2155 5.22398C81.7901 8.70663 87.1381 13.7894 91.0632 20.3312C94.9884 26.8729 97 33.65 97 40.427C97 48.4277 94.5959 57.1814 89.8857 66.3587C85.1755 75.4889 76.4911 86.4075 64.0779 98.8321L50.5362 112.527H88.5119C89.1497 112.527 89.7385 112.951 89.7876 113.563C89.8857 114.269 89.2969 114.881 88.561 114.881H47.7395C47.347 114.881 46.9545 114.739 46.7092 114.41C46.3166 113.939 46.3657 113.28 46.8073 112.857L62.3116 97.1849C74.5776 84.9485 83.1148 74.2182 87.7269 65.3233C92.2898 56.4755 94.5959 48.0983 94.5959 40.427C94.5959 34.0735 92.7314 27.72 89.0025 21.5077C85.2736 15.3425 80.2691 10.5421 74.087 7.24768C67.8068 4.00035 60.5453 2.35314 52.4006 2.35314C39.2023 2.35314 28.261 6.35349 19.871 14.3071C11.7264 22.0254 7.16338 32.6616 6.28022 46.0275H29.4385C29.8801 39.3916 31.9899 34.0265 35.7188 30.0261C39.693 25.7434 44.7466 23.5785 50.7324 23.5785C56.6201 23.5785 61.4775 25.3669 65.2554 28.8966C69.0334 32.4263 70.9469 36.9914 70.9469 42.4037C70.9469 47.4865 69.1806 53.2281 65.697 59.4875C62.2625 65.6527 55.2463 73.8887 44.8938 83.9602L2.45321 125.423V135.823H63.3419C64.0288 135.823 64.5685 136.341 64.5685 137C64.5685 137.659 64.0288 138.177 63.3419 138.177Z" fill="white"/>
</svg>
