<svg width="90" height="139" viewBox="0 0 90 139" fill="none" xmlns="http://www.w3.org/2000/svg">
<path d="M51.2221 137.12C51.3185 136.384 50.7403 135.787 49.9693 135.787C49.0056 135.833 47.9937 135.833 47.0299 135.833C34.2606 135.833 23.7078 132.111 15.6607 124.759C7.9027 117.636 3.46956 107.894 2.45765 95.7173H25.6834C26.8881 102.151 29.442 107.067 33.2487 110.33C37.2481 113.776 42.3559 115.522 48.3792 115.522C54.6915 115.522 60.0402 113.547 64.1842 109.641C68.3764 105.735 70.4966 100.91 70.4966 95.2578C70.4966 89.0543 67.6536 83.7698 62.0159 79.4963C56.7154 75.4526 49.0538 73.2929 39.3201 73.0172V54.0851C45.1507 53.5796 49.4874 52.6606 52.5232 51.282C55.7516 49.8116 58.3055 47.7897 60.0884 45.2164C61.9195 42.6431 62.835 39.8401 62.835 36.9451C62.835 33.1311 61.3894 29.8686 58.5946 27.3412C55.7998 24.8139 52.0895 23.5732 47.6082 23.5732C43.6569 23.5732 40.0429 24.722 36.8144 27.0196C33.9715 29.2252 31.8031 31.9364 30.5984 35.199H8.04726C9.44466 26.5141 12.8659 19.4375 18.3109 14.1072C26.2617 6.24942 36.429 2.29758 48.5237 2.29758C59.2692 2.29758 68.4246 5.6061 75.7008 12.0853C82.9287 18.5645 86.639 26.3762 86.639 35.2449C86.639 40.3455 85.2416 45.1245 82.495 49.444C82.1577 49.9494 82.3504 50.6387 82.8805 51.0063C82.8805 51.6496 83.7479 51.8794 84.1333 51.328C87.41 46.5031 89.0483 41.0808 89.0483 35.2449C89.0483 25.687 85.0971 17.3238 77.3873 10.3851C69.5811 3.49233 59.8957 0 48.5237 0C35.7543 0 25.0088 4.1816 16.5762 12.4988C10.5048 18.4726 6.79441 26.4222 5.4452 36.2099C5.39701 36.5316 5.49339 36.8532 5.73432 37.1289C5.97525 37.3587 6.31255 37.4965 6.64986 37.4965H31.4658C31.9958 37.4965 32.4777 37.1749 32.6222 36.7154C33.6342 33.5447 35.5616 30.9255 38.3564 28.9495C41.1512 26.9736 44.2833 25.9627 47.7045 25.9627C51.6076 25.9627 54.6434 27.0196 57.0045 29.1333C59.3656 31.2471 60.5221 33.8204 60.5221 37.037C60.5221 39.4725 59.7511 41.8619 58.2091 44.0676C56.6672 46.2733 54.4024 48.0654 51.6076 49.3521C48.7164 50.6847 44.1869 51.5577 38.1637 52.0173C37.5372 52.0632 37.0554 52.5687 37.0554 53.166V74.2579C37.0554 74.9012 37.5854 75.4066 38.26 75.4066C48.0418 75.5445 55.5589 77.5204 60.6666 81.3804C65.7744 85.2403 68.2319 89.7895 68.2319 95.3497C68.2319 100.404 66.4008 104.586 62.6423 108.078C58.9319 111.525 54.1615 113.271 48.4755 113.271C43.0305 113.271 38.4528 111.708 34.9352 108.676C31.3694 105.597 29.0565 100.818 27.9964 94.4766C27.9 93.9252 27.4181 93.5116 26.7917 93.5116H1.253C0.915692 93.5116 0.626575 93.6495 0.385644 93.8792C0.144712 94.109 0.0483398 94.4306 0.0483398 94.7523C0.867506 108.078 5.58976 118.739 14.0705 126.505C22.5513 134.271 33.6823 138.223 47.0781 138.223C48.09 138.223 49.1501 138.177 50.1139 138.131C50.6921 138.085 51.1258 137.671 51.2221 137.12Z" fill="white"/>
</svg>
