<svg width="99" height="145" viewBox="0 0 99 145" fill="none" xmlns="http://www.w3.org/2000/svg">
<g clip-path="url(#clip0)">
<path d="M63.9823 143.75V116.69C63.9823 115.99 63.432 115.44 62.7317 115.44H2.50126V92.2818L62.8818 2.50086H87.6943V91.9317C87.6943 92.632 88.2446 93.1821 88.9449 93.1821H97.6993C98.3497 93.1821 98.95 92.732 99 92.0818C99.05 91.3315 98.4997 90.6813 97.7494 90.6813H90.1956V1.25043C90.1956 0.55019 89.6453 0 88.9449 0H62.2314C61.8312 0 61.431 0.200069 61.1809 0.55019L0.200101 91.2315C0.0500253 91.4315 0 91.6816 0 91.9317V116.74C0 117.44 0.550278 117.991 1.25063 117.991H61.4811V143.8C61.4811 144.5 62.0313 145.05 62.7317 145.05C63.432 145 63.9823 144.45 63.9823 143.75Z" fill="white"/>
<path d="M61.681 44.0153L29.5148 91.1815C29.2646 91.5817 29.2146 92.0818 29.4647 92.482C29.6648 92.8821 30.1151 93.1322 30.5653 93.1322H62.7315C63.4319 93.1322 63.9822 92.582 63.9822 91.8818V44.7155C63.9822 44.1653 63.632 43.6651 63.0817 43.5151C62.5815 43.365 61.9812 43.5651 61.681 44.0153ZM61.4809 90.6814H32.9165L61.4809 48.7669V90.6814Z" fill="white"/>
</g>
<defs>
<clipPath id="clip0">
<rect width="99" height="145" fill="white"/>
</clipPath>
</defs>
</svg>
