<svg width="66" height="50" viewBox="0 0 66 50" fill="none" xmlns="http://www.w3.org/2000/svg">
<path d="M26.3925 34.1963C25.7683 34.5535 25.5008 35.2677 25.8575 35.8927L25.9467 35.982C26.2142 36.4285 26.5708 36.607 27.0166 36.607C27.1949 36.607 27.4624 36.5177 27.6408 36.4285C28.2649 36.0713 28.4432 35.2677 28.0866 34.6427C27.8191 34.107 27.0166 33.8392 26.3925 34.1963Z" fill="white"/>
<path d="M28.2645 14.2859C27.6404 13.9288 26.9271 14.1967 26.5704 14.8217V14.9109C26.2138 15.5359 26.3921 16.2502 27.0163 16.6074C27.1946 16.6967 27.4621 16.7859 27.6404 16.7859C28.0862 16.7859 28.532 16.5181 28.7104 16.1609L28.7995 16.0717C29.067 15.4467 28.7995 14.6431 28.2645 14.2859Z" fill="white"/>
<path d="M58.937 20.8033C59.0261 20.8033 59.1153 20.8033 59.2045 20.8033C59.9178 20.6247 60.3636 19.9997 60.1853 19.2855V19.1962C60.0069 18.4819 59.3828 18.1247 58.6695 18.3033C57.9562 18.4819 57.5995 19.1962 57.7779 19.8212C57.867 20.3569 58.3128 20.8033 58.937 20.8033Z" fill="white"/>
<path d="M34.952 41.3393H34.8628C34.2387 41.0714 33.4362 41.3393 33.1687 41.9643C32.9012 42.5893 33.1687 43.3928 33.7929 43.6607H33.882C34.0603 43.75 34.2387 43.75 34.417 43.75C34.8628 43.75 35.3086 43.4821 35.5761 43.0357C35.8436 42.4107 35.5761 41.6071 34.952 41.3393Z" fill="white"/>
<path d="M24.7876 24.0181C24.0743 24.0181 23.5394 24.5538 23.4502 25.2681V25.3574C23.4502 26.0716 23.9852 26.6074 24.6985 26.6074C25.4118 26.6074 25.9468 26.0716 25.9468 25.3574C26.0359 24.6431 25.501 24.1074 24.7876 24.0181Z" fill="white"/>
<path d="M58.937 28.482C58.3129 28.3035 57.5996 28.6606 57.3321 29.3749V29.4642C57.1538 30.1785 57.5996 30.8035 58.2237 30.982C58.3129 30.982 58.4021 31.0713 58.5804 31.0713C59.1154 31.0713 59.6503 30.7142 59.8287 30.0892C60.007 29.3749 59.6503 28.7499 58.937 28.482Z" fill="white"/>
<path d="M54.8356 9.55343C54.3006 9.107 53.5873 9.107 53.0523 9.64271C52.5173 10.1784 52.6065 10.982 53.1415 11.4284C53.4089 11.6963 53.6764 11.7856 54.0331 11.7856C54.3897 11.7856 54.6572 11.6963 54.9247 11.4284C55.4597 10.8927 55.3705 10.0891 54.8356 9.55343Z" fill="white"/>
<path d="M44.225 42.4105H44.1359C43.4226 42.589 43.0659 43.214 43.1551 43.9283C43.3334 44.5533 43.7792 44.9105 44.4034 44.9105C44.4925 44.9105 44.5817 44.9105 44.6708 44.9105H44.76C45.4733 44.7319 45.9191 44.1069 45.7408 43.3926C45.5625 42.6783 44.9383 42.2319 44.225 42.4105Z" fill="white"/>
<path d="M34.2387 7.05364C33.5254 7.41078 33.3471 8.21436 33.7037 8.83936C33.9712 9.28578 34.3279 9.46436 34.8628 9.46436C35.0412 9.46436 35.3087 9.37507 35.487 9.28578C36.1111 8.92864 36.2894 8.12507 35.9328 7.58936C35.6653 6.96436 34.8628 6.78578 34.2387 7.05364Z" fill="white"/>
<path d="M44.5817 7.41058H44.6708C44.76 7.41058 44.76 7.41058 44.8492 7.41058C45.4733 7.41058 46.0083 6.96415 46.0974 6.24987C46.1866 5.53558 45.6516 4.91058 45.0275 4.82129H44.9383C44.225 4.73201 43.6009 5.26772 43.5117 5.89272C43.4225 6.69629 43.9575 7.3213 44.5817 7.41058Z" fill="white"/>
<path d="M13.9094 2.5H27.5514C28.2647 2.5 28.7997 1.96429 28.7997 1.25C28.7997 0.535714 28.2647 0 27.5514 0H13.9094C13.1961 0 12.6611 0.535714 12.6611 1.25C12.6611 1.96429 13.1961 2.5 13.9094 2.5Z" fill="white"/>
<path d="M5.43871 12.0537H19.0807C19.794 12.0537 20.329 11.518 20.329 10.8037C20.329 10.0894 19.794 9.55371 19.0807 9.55371H5.43871C4.72541 9.55371 4.19043 10.0894 4.19043 10.8037C4.19043 11.4287 4.81457 12.0537 5.43871 12.0537Z" fill="white"/>
<path d="M2.1401 21.5181H15.7821C16.4954 21.5181 17.0304 20.9824 17.0304 20.2681C17.0304 19.5538 16.4954 19.0181 15.7821 19.0181H2.1401C1.4268 19.0181 0.891819 19.5538 0.891819 20.2681C0.802656 20.9824 1.4268 21.5181 2.1401 21.5181Z" fill="white"/>
<path d="M16.2277 29.7319C16.2277 29.0176 15.6927 28.4819 14.9794 28.4819H1.24829C0.534979 28.4819 0 29.0176 0 29.7319C0 30.4462 0.534979 30.9819 1.24829 30.9819H14.9794C15.6036 30.9819 16.2277 30.4462 16.2277 29.7319Z" fill="white"/>
<path d="M18.7245 39.1963C18.7245 38.482 18.1895 37.9463 17.4762 37.9463H3.83422C3.12092 37.9463 2.58594 38.482 2.58594 39.1963C2.58594 39.9106 3.12092 40.4463 3.83422 40.4463H17.4762C18.1895 40.4463 18.7245 39.9106 18.7245 39.1963Z" fill="white"/>
<path d="M25.0551 47.4106H11.324C10.6107 47.4106 10.0757 47.9464 10.0757 48.6606C10.0757 49.3749 10.6107 49.9106 11.324 49.9106H25.0551C25.7684 49.9106 26.3034 49.3749 26.3034 48.6606C26.3034 48.0356 25.7684 47.4106 25.0551 47.4106Z" fill="white"/>
<path d="M54.1223 26.6074L46.3651 24.6431C46.3651 24.7324 46.3651 24.8217 46.3651 24.9109C46.3651 25.1788 46.3651 25.4467 46.276 25.7145C46.3651 25.4467 46.3651 25.1788 46.3651 24.9109C46.3651 23.7502 45.9193 22.6788 45.1169 21.9645L49.8425 13.4824C50.1992 12.8574 49.9317 12.0538 49.3075 11.7859C48.6834 11.4288 47.9701 11.6967 47.6134 12.3217L42.8878 20.8038C43.1553 20.8931 43.4228 20.9824 43.6011 21.0717C43.0661 20.8931 42.5311 20.7145 41.9961 20.7145C39.6779 20.7145 37.7163 22.5895 37.7163 25.0002C37.7163 27.3217 39.5887 29.2859 41.9961 29.2859C43.7794 29.2859 45.206 28.2145 45.9193 26.6967C45.8302 26.8752 45.741 27.0538 45.6518 27.2324L53.409 29.1967C53.4982 29.1967 53.5874 29.1967 53.7657 29.1967C54.3007 29.1967 54.8356 28.8395 55.014 28.2145C55.1923 27.5002 54.7465 26.7859 54.1223 26.6074ZM44.3144 21.2502C44.1361 21.1609 43.9577 21.0717 43.7794 20.9824C44.0469 21.0717 44.2252 21.1609 44.3144 21.2502ZM44.9385 21.7859C44.8494 21.6967 44.671 21.5181 44.4927 21.4288C44.671 21.5181 44.8494 21.6074 44.9385 21.7859ZM42.0853 26.6074C41.1045 26.6074 40.3912 25.8038 40.3912 24.9109C40.3912 23.9288 41.1937 23.2145 42.0853 23.2145C43.0661 23.2145 43.7794 24.0181 43.7794 24.9109C43.7794 25.8038 43.0661 26.6074 42.0853 26.6074ZM46.1868 25.8038C46.0977 25.9824 46.0976 26.1609 46.0085 26.3395C46.0976 26.2502 46.1868 26.0717 46.1868 25.8038Z" fill="white"/>
<path d="M58.5803 6.69643C55.9945 4.01786 52.7846 1.875 49.0398 0.803571C48.594 0.714286 48.1482 0.535714 47.7023 0.446429C47.6132 0.446429 47.6132 0.446429 47.524 0.446429C47.1674 0.357143 46.7215 0.267857 46.3649 0.267857C46.2757 0.267857 46.0974 0.267857 46.0082 0.178571C45.6516 0.178571 45.2949 0.0892857 45.0274 0.0892857C44.9383 0.0892857 44.76 0.0892857 44.6708 0.0892857C44.225 0.0892857 43.7792 0 43.3333 0C43.2442 0 43.2442 0 43.155 0C42.7984 0 42.4417 0 42.0851 0C41.9959 0 41.8176 0 41.7284 0C41.4609 0 41.1934 0.0892857 40.8368 0.0892857C40.7476 0.0892857 40.5693 0.0892857 40.4801 0.178571C40.2126 0.178571 39.856 0.267857 39.5885 0.357143C39.4993 0.357143 39.321 0.357143 39.2318 0.446429C38.8752 0.535714 38.5185 0.625 38.251 0.714286C38.1619 0.714286 38.1619 0.714286 38.0727 0.803571C36.3786 1.25 34.7737 1.875 33.1687 2.67857C27.1948 5.625 22.2908 11.3393 20.2401 18.75C17.6543 27.9464 19.9726 37.2321 25.5899 43.3036C28.1756 46.0714 31.3855 48.125 35.1303 49.1964C35.5761 49.2857 36.022 49.4643 36.4678 49.5536C36.5569 49.5536 36.5569 49.5536 36.6461 49.5536C37.0028 49.6429 37.4486 49.7321 37.8052 49.7321C37.8944 49.7321 38.0727 49.7321 38.1619 49.8214C38.5185 49.8214 38.8752 49.9107 39.1427 49.9107C39.2318 49.9107 39.4102 49.9107 39.4993 49.9107C39.9451 49.9107 40.391 50 40.8368 50C40.9259 50 40.9259 50 41.0151 50C41.3718 50 41.7284 50 42.0851 50C42.1742 50 42.3526 50 42.4417 50C42.7092 50 43.0659 49.9107 43.3333 49.9107C43.4225 49.9107 43.6008 49.9107 43.69 49.8214C43.9575 49.8214 44.3141 49.7321 44.5816 49.6429C44.6708 49.6429 44.8491 49.6429 44.9383 49.5536C45.2949 49.4643 45.6516 49.375 45.9191 49.2857C46.0082 49.2857 46.0082 49.2857 46.0974 49.1964C47.7915 48.75 49.3964 48.125 51.0014 47.3214C56.9753 44.1964 61.7901 38.4821 63.9301 31.1607C66.6049 22.1429 64.1975 12.7679 58.5803 6.69643ZM49.4856 45.3571C49.129 45.5357 48.6831 45.7143 48.3265 45.8929C48.1482 45.9821 47.9698 46.0714 47.8807 46.0714C47.524 46.25 47.1674 46.3393 46.7216 46.4286C46.5432 46.5179 46.3649 46.5179 46.1866 46.6071C45.8299 46.6964 45.4733 46.7857 45.1166 46.875C44.9383 46.9643 44.6708 46.9643 44.4925 47.0536C44.1358 47.1429 43.8683 47.1429 43.5117 47.2321C43.2442 47.2321 42.9767 47.3214 42.7092 47.3214C42.4417 47.3214 42.1742 47.3214 41.9067 47.4107C41.6392 47.4107 41.2826 47.4107 41.0151 47.4107C40.5693 47.4107 40.0343 47.4107 39.5885 47.3214C39.4102 47.3214 39.2318 47.3214 38.9643 47.2321C38.6077 47.2321 38.3402 47.1429 37.9836 47.1429C37.7161 47.1429 37.5377 47.0536 37.2702 47.0536C36.8244 46.9643 36.4678 46.875 36.022 46.7857C35.9328 46.7857 35.8436 46.7857 35.7545 46.6964C25.0549 43.5714 19.0809 31.3393 22.5583 19.375C22.915 18.125 23.3608 16.875 23.9849 15.7143C26.3032 10.7143 30.1372 6.78571 34.6845 4.64286C35.0412 4.46429 35.487 4.28571 35.8436 4.10714C36.022 4.01786 36.2003 3.92857 36.2895 3.92857C36.6461 3.75 37.0919 3.57143 37.4486 3.48214C37.6269 3.39286 37.8052 3.39286 37.9836 3.30357C38.3402 3.21429 38.6969 3.125 39.0535 3.03571C39.2318 2.94643 39.4993 2.94643 39.6777 2.85714C40.0343 2.76786 40.3018 2.76786 40.6584 2.67857C40.9259 2.67857 41.1934 2.58929 41.4609 2.58929C41.7284 2.58929 41.9959 2.58929 42.2634 2.5C42.5309 2.5 42.8875 2.5 43.155 2.5C43.6008 2.5 44.1358 2.5 44.5816 2.58929C44.76 2.58929 44.9383 2.58929 45.2058 2.67857C45.5624 2.67857 45.8299 2.76786 46.1866 2.76786C46.4541 2.76786 46.6324 2.85714 46.8999 2.85714C47.3457 2.94643 47.7023 3.03571 48.1482 3.125C48.2373 3.125 48.3265 3.125 48.4157 3.21429C59.1152 6.33929 65.0892 18.5714 61.6118 30.5357C61.2552 31.7857 60.8093 33.0357 60.1852 34.1964C57.7778 39.2857 53.9438 43.2143 49.4856 45.3571Z" fill="white"/>
</svg>
