<svg width="65" height="51" viewBox="0 0 65 51" fill="none" xmlns="http://www.w3.org/2000/svg">
<path d="M32.6492 34.6523C31.2305 34.6523 29.8864 35.1481 28.9157 36.1397C26.825 38.1229 26.825 41.3101 28.9157 43.2933C29.8864 44.214 31.2305 44.7806 32.6492 44.7806C34.0679 44.7806 35.412 44.2849 36.4574 43.2933C38.5481 41.3101 38.5481 38.1229 36.4574 36.1397C35.412 35.1481 34.0679 34.6523 32.6492 34.6523ZM35.0386 41.9475C34.3666 42.585 33.5452 42.8683 32.6492 42.8683C31.7532 42.8683 30.9318 42.5142 30.2598 41.9475C28.9157 40.6727 28.9157 38.6895 30.2598 37.4146C30.9318 36.7772 31.7532 36.4939 32.6492 36.4939C33.5452 36.4939 34.3666 36.848 35.0386 37.4146C36.3827 38.6895 36.3827 40.6727 35.0386 41.9475Z" fill="white"/>
<path d="M43.1781 37.131L40.1913 36.706L41.9834 34.3688C42.2074 34.0147 42.2074 33.5897 41.9834 33.3064C41.61 32.8106 41.162 32.3857 40.7886 31.9607C40.3406 31.5358 39.8926 31.1816 39.3699 30.8275C38.9966 30.615 38.5486 30.615 38.2499 30.8275L35.7858 32.5273L35.3378 29.6943C35.2631 29.2693 34.9644 28.986 34.5164 28.9152C33.247 28.7027 31.9776 28.7027 30.7829 28.9152C30.3349 28.986 30.0362 29.2693 29.9615 29.6943L29.5135 32.5273L27.0494 30.8275C26.6761 30.615 26.228 30.615 25.9294 30.8275C25.4067 31.1816 24.9587 31.5358 24.5106 31.9607C24.0626 32.3857 23.6893 32.8106 23.3159 33.3064C23.0919 33.6605 23.0919 34.0855 23.3159 34.3688L25.108 36.706L22.1212 37.131C21.6732 37.2018 21.3745 37.4851 21.2998 37.9101C21.0758 39.1141 21.0758 40.2473 21.2998 41.4514C21.3745 41.8763 21.6732 42.1596 22.1212 42.2305L25.108 42.6554L23.3159 44.9927C23.0919 45.3468 23.0919 45.7717 23.3159 46.055C23.6893 46.5508 24.0626 46.9758 24.5106 47.4007C24.9587 47.8257 25.4067 48.1798 25.9294 48.5339C26.3027 48.7464 26.7507 48.7464 27.0494 48.5339L29.5135 46.8341L29.9615 49.6672C30.0362 50.0921 30.3349 50.3754 30.7829 50.4462C31.3803 50.5171 32.0523 50.5879 32.6496 50.5879C33.247 50.5879 33.919 50.5171 34.5164 50.4462C34.9644 50.3754 35.2631 50.0921 35.3378 49.6672L35.7858 46.8341L38.2499 48.5339C38.6232 48.7464 39.0712 48.7464 39.3699 48.5339C39.8926 48.1798 40.3406 47.8257 40.7886 47.4007C41.2367 46.9758 41.61 46.5508 41.9834 46.055C42.2074 45.7009 42.2074 45.276 41.9834 44.9927L40.1913 42.6554L43.1781 42.2305C43.6261 42.1596 43.9248 41.8763 43.9994 41.4514C44.2235 40.2473 44.2235 39.1141 43.9994 37.9101C43.9248 37.4851 43.6261 37.2018 43.1781 37.131ZM42.2074 40.5306L39.3699 40.9556C38.9966 41.0264 38.6979 41.2389 38.6232 41.593C38.5486 41.8763 38.3992 42.1596 38.3245 42.3721C38.1752 42.6554 38.1752 43.0804 38.3992 43.3637L40.1166 45.5593C39.9673 45.7717 39.7433 45.9842 39.5193 46.1967C39.2952 46.4092 39.0712 46.5508 38.8472 46.7633L36.4578 45.1343C36.1591 44.9218 35.7858 44.9218 35.4871 45.0635C35.2631 45.2051 34.9644 45.276 34.6657 45.4176C34.2924 45.5593 34.0684 45.8426 33.9937 46.1259L33.5457 48.8172C32.9483 48.8881 32.351 48.8881 31.8283 48.8172L31.3803 46.1259C31.3056 45.7717 31.0816 45.4884 30.7082 45.4176C30.4095 45.3468 30.1855 45.2051 29.8869 45.1343C29.5882 44.9927 29.1402 44.9927 28.9162 45.2051L26.5267 46.8341C26.3027 46.6216 26.0787 46.48 25.8547 46.2675C25.6307 46.055 25.4813 45.8426 25.2573 45.6301L26.9747 43.4345C27.1988 43.1512 27.1988 42.7971 27.0494 42.5138C26.9001 42.3013 26.8254 42.018 26.6761 41.7347C26.5267 41.3805 26.228 41.1681 25.9294 41.0972L23.0919 40.6723C23.0172 40.1057 23.0172 39.5391 23.0919 39.0433L25.9294 38.6183C26.3027 38.5475 26.6014 38.335 26.6761 37.9809C26.7507 37.6976 26.9001 37.4851 26.9747 37.2018C27.1241 36.9185 27.1241 36.4936 26.9001 36.2811L25.1827 34.0855C25.4067 33.873 25.556 33.6605 25.78 33.4481C26.004 33.2356 26.228 33.0939 26.4521 32.8815L28.7668 34.5104C29.0655 34.7229 29.4388 34.7229 29.7375 34.5813C29.9615 34.4396 30.2602 34.3688 30.5589 34.298C30.9322 34.1563 31.1562 33.873 31.2309 33.5897L31.6789 30.8983C32.2763 30.8275 32.799 30.8275 33.3963 30.8983L33.8444 33.5897C33.919 33.9438 34.143 34.2271 34.5164 34.298C34.8151 34.3688 35.0391 34.5104 35.3378 34.5813C35.6364 34.7229 36.0098 34.7229 36.3085 34.5104L38.6979 32.8815C38.9219 33.0939 39.1459 33.2356 39.3699 33.4481C39.5939 33.6605 39.7433 33.873 39.9673 34.0855L38.2499 36.3519C38.0259 36.6352 38.0259 36.9893 38.1752 37.2727C38.3245 37.556 38.3992 37.7684 38.4739 38.0517C38.6232 38.4059 38.9219 38.6183 39.2206 38.6892L42.058 39.1141C42.2074 39.3974 42.2074 39.964 42.2074 40.5306Z" fill="white"/>
<path d="M11.5174 5.96729C10.0987 5.96729 8.75459 6.46306 7.78389 7.45462C6.81318 8.44618 6.21582 9.65022 6.21582 10.9959C6.21582 12.3416 6.73851 13.6165 7.78389 14.5372C8.75459 15.4579 10.0987 16.0245 11.5174 16.0245C12.9361 16.0245 14.2802 15.5288 15.2509 14.5372C17.3416 12.5541 17.3416 9.36692 15.2509 7.3838C14.2802 6.46307 12.9361 5.96729 11.5174 5.96729ZM13.9068 13.2623C13.2348 13.8998 12.4134 14.1831 11.5174 14.1831C10.6213 14.1831 9.79997 13.8289 9.12794 13.2623C8.45592 12.6249 8.15724 11.8458 8.15724 10.9959C8.15724 10.146 8.53059 9.36692 9.12794 8.72949C9.79997 8.09206 10.6213 7.80875 11.5174 7.80875C12.4134 7.80875 13.2348 8.16288 13.9068 8.72949C15.2509 10.0044 15.2509 12.0583 13.9068 13.2623Z" fill="white"/>
<path d="M22.1209 8.51737L19.1341 8.09241L20.9262 5.75512C21.1502 5.40099 21.1502 4.97603 20.9262 4.69272C20.5528 4.19693 20.1048 3.77197 19.7315 3.34701C19.3581 2.92205 18.8354 2.56791 18.3128 2.21378C17.9394 2.0013 17.4914 2.0013 17.1927 2.21378L14.7286 3.91362L14.2806 1.08055C14.2059 0.655585 13.9072 0.372277 13.4592 0.30145C12.2645 0.0889697 10.9204 0.0889697 9.72573 0.30145C9.27771 0.372277 8.97904 0.655585 8.90437 1.08055L8.45635 3.91362L5.99225 2.14295C5.6189 1.93047 5.17088 1.93047 4.8722 2.14295C4.34951 2.49708 3.90149 2.85122 3.45348 3.27618C2.93079 3.70114 2.55744 4.1261 2.18409 4.62189C1.96008 4.97603 1.96008 5.40099 2.18409 5.75512L3.97616 8.09241L0.989374 8.51737C0.541355 8.5882 0.242677 8.87151 0.168007 9.29647C-0.0560023 10.5005 -0.0560023 11.6338 0.168007 12.8378C0.242677 13.2628 0.541355 13.5461 0.989374 13.6169L3.97616 14.0419L2.18409 16.3792C1.96008 16.7333 1.96008 17.1583 2.18409 17.4416C2.55744 17.9374 2.93079 18.3623 3.37881 18.7873C3.82682 19.2122 4.27484 19.5664 4.79753 19.9205C5.17088 20.133 5.6189 20.133 5.91758 19.9205L8.38168 18.2207L8.8297 21.0537C8.90437 21.4787 9.20304 21.762 9.65106 21.8328C10.2484 21.9037 10.9204 21.9745 11.5178 21.9745C12.1152 21.9745 12.7872 21.9037 13.3846 21.8328C13.8326 21.762 14.1312 21.4787 14.2059 21.0537L14.6539 18.2207L17.118 19.9205C17.4914 20.133 17.9394 20.133 18.2381 19.9205C18.7608 19.5664 19.2088 19.2122 19.6568 18.7873C20.1048 18.3623 20.4782 17.9374 20.8515 17.4416C21.0755 17.0874 21.0755 16.6625 20.8515 16.3792L19.0595 14.0419L22.0462 13.6169C22.4943 13.5461 22.7929 13.2628 22.8676 12.8378C23.0916 11.6338 23.0916 10.5005 22.8676 9.29647C22.8676 8.87151 22.4943 8.51737 22.1209 8.51737ZM21.0755 11.8462L18.2381 12.2712C17.8647 12.342 17.5661 12.5545 17.4914 12.9086C17.4167 13.1919 17.2674 13.4753 17.1927 13.6877C17.0434 13.971 17.0434 14.396 17.2674 14.6085L18.9848 16.8749C18.8354 17.0874 18.6114 17.2999 18.3874 17.5124C18.1634 17.7249 17.9394 17.8665 17.7154 18.079L15.326 16.3792C15.0273 16.1667 14.6539 16.1667 14.3553 16.3083C14.1312 16.45 13.8326 16.5208 13.5339 16.6625C13.1605 16.8041 12.9365 17.0874 12.8619 17.3707L12.4138 20.0622C11.8165 20.133 11.2938 20.133 10.6964 20.0622L10.2484 17.3707C10.1738 17.0166 9.94974 16.7333 9.57639 16.6625C9.27771 16.5916 9.05371 16.45 8.75503 16.3792C8.45635 16.2375 8.00833 16.2375 7.78432 16.45L5.39489 18.079C5.17088 17.8665 4.94687 17.7249 4.72286 17.5124C4.49885 17.2999 4.34951 17.0874 4.1255 16.8749L5.84291 14.6085C6.06692 14.3252 6.06692 13.971 5.91758 13.6877C5.76824 13.4044 5.69357 13.1919 5.6189 12.9086C5.46956 12.5545 5.17088 12.342 4.8722 12.2712L2.03475 11.8462C1.96008 11.2796 1.96008 10.7838 2.03475 10.2172L4.8722 9.79226C5.24555 9.72143 5.54423 9.50895 5.6189 9.15482C5.69357 8.87151 5.84291 8.65903 5.91758 8.37572C6.06692 8.09241 6.06692 7.66745 5.84291 7.45497L4.20017 5.18851C4.42418 4.97603 4.57352 4.76355 4.79753 4.55107C5.02154 4.33858 5.24555 4.19693 5.46956 3.98445L7.78432 5.61347C8.083 5.82595 8.45635 5.82595 8.75503 5.6843C8.97904 5.54264 9.27771 5.47182 9.57639 5.40099C9.94974 5.25933 10.1738 4.97603 10.2484 4.69272L10.6964 2.0013C11.2938 1.93047 11.8912 1.93047 12.4138 2.0013L12.8619 4.69272C12.9365 5.04685 13.1605 5.33016 13.5339 5.40099C13.8326 5.47182 14.0566 5.61347 14.3553 5.6843C14.6539 5.82595 15.102 5.82595 15.326 5.61347L17.7154 3.98445C17.9394 4.19693 18.1634 4.33858 18.3874 4.55107C18.6114 4.76355 18.7608 4.97603 18.9848 5.18851L17.1927 7.45497C16.9687 7.73828 16.9687 8.09241 17.118 8.37572C17.2674 8.65903 17.342 8.87151 17.4167 9.15482C17.5661 9.50895 17.8647 9.72143 18.1634 9.79226L21.0009 10.2172C21.1502 10.7838 21.1502 11.2796 21.0755 11.8462Z" fill="white"/>
<path d="M64.1599 8.51692L61.0985 8.09196C61.0985 8.09196 61.0984 8.02113 61.0238 8.02113C62.5172 4.12566 62.0692 3.7007 61.6958 3.34656C61.4718 3.06326 61.1731 2.9216 60.7251 2.9216C59.7544 2.9216 57.7383 3.55904 56.8423 3.91318C56.8423 3.91318 56.7676 3.91318 56.7676 3.84235L56.3196 0.938455C56.2449 0.513494 55.9462 0.230187 55.4982 0.15936C54.2288 -0.0531201 52.9595 -0.0531201 51.7647 0.15936C51.3167 0.230187 51.018 0.513494 50.9434 0.938455L50.4954 3.84235C50.4954 3.84235 50.4207 3.84235 50.4207 3.91318C49.3753 3.62987 47.3592 2.9216 46.3885 2.9216C45.9405 2.9216 45.6418 3.06326 45.4178 3.27574C45.0445 3.62987 44.5965 4.05483 46.0899 7.9503C46.0899 7.9503 46.0899 8.02113 46.0152 8.02113L42.9537 8.44609C42.5057 8.51692 42.207 8.80022 42.1324 9.22518C41.9084 10.4292 41.9084 11.5625 42.1324 12.7665C42.207 13.1915 42.5057 13.4748 42.9537 13.5456L46.0152 13.9706C46.0152 13.9706 46.0152 14.0414 46.0899 14.0414C44.5965 17.9369 45.0445 18.3618 45.4178 18.716C45.6418 18.9284 46.0152 19.0701 46.3885 19.0701C47.3592 19.0701 49.3753 18.4327 50.2714 18.0785C50.2714 18.0785 50.346 18.0785 50.346 18.1494L50.794 21.0533C50.8687 21.4782 51.1674 21.7615 51.6154 21.8323C52.2128 21.9032 52.8848 21.974 53.4821 21.974C54.0795 21.974 54.7515 21.9032 55.3489 21.8323C55.7969 21.7615 56.0956 21.4782 56.1703 21.0533L56.6183 18.1494C56.6183 18.1494 56.6929 18.1494 56.6929 18.0785C57.589 18.3618 59.6797 19.0701 60.5758 19.0701C61.0238 19.0701 61.3225 18.9284 61.5465 18.716C61.9198 18.3618 62.3678 17.9369 60.8744 14.0414C60.8744 14.0414 60.8744 13.9706 60.9491 13.9706L64.0106 13.5456C64.4586 13.4748 64.7573 13.1915 64.8319 12.7665C65.0559 11.5625 65.0559 10.4292 64.8319 9.22518C64.9066 8.87105 64.5333 8.51692 64.1599 8.51692ZM63.1145 11.8458L60.2771 12.2707C59.9037 12.3416 59.6051 12.554 59.5304 12.9082C59.4557 13.1915 59.3064 13.404 59.2317 13.6873C59.0824 13.8998 59.0824 14.1831 59.157 14.3955C59.5304 15.3163 59.9037 16.3787 60.0531 17.1578C59.3064 16.9453 58.1117 16.5912 57.141 16.3079C56.9169 16.237 56.6183 16.237 56.3943 16.3787C56.1703 16.5203 55.8716 16.5912 55.5729 16.7328C55.1995 16.8745 54.9755 17.1578 54.9009 17.4411L54.4529 20.1325C53.8555 20.2033 53.2581 20.2033 52.7354 20.1325L52.2874 17.4411C52.2128 17.087 51.9888 16.8036 51.6154 16.7328C51.3167 16.662 51.0927 16.5203 50.794 16.4495C50.57 16.3079 50.2714 16.3079 50.0473 16.3787C49.226 16.662 47.9566 17.087 47.1352 17.2286C47.3592 16.5203 47.6579 15.3871 48.0313 14.4664C48.1059 14.2539 48.1059 13.9706 47.9566 13.7581C47.8073 13.5456 47.7326 13.2623 47.6579 12.979C47.5086 12.6249 47.2099 12.4124 46.9112 12.3416L44.0738 11.9166C43.9991 11.35 43.9991 10.8542 44.0738 10.2876L46.9112 9.86263C47.2846 9.7918 47.5832 9.57932 47.6579 9.22518C47.7326 8.94188 47.8819 8.7294 47.9566 8.44609C48.1059 8.23361 48.1059 7.9503 48.0313 7.73782C47.6579 6.81707 47.2846 5.75467 47.1352 4.97558C47.8819 5.18806 49.0766 5.54219 50.0473 5.8255C50.2714 5.89633 50.57 5.89633 50.794 5.75467C51.018 5.61302 51.3167 5.54219 51.6154 5.47137C51.9888 5.32971 52.2128 5.04641 52.2874 4.7631L52.7354 2.07168C53.3328 2.00086 53.8555 2.00086 54.4529 2.07168L54.9009 4.7631C54.9755 5.11723 55.1995 5.40054 55.5729 5.47137C55.8716 5.54219 56.0956 5.68385 56.3943 5.75467C56.6183 5.89633 56.9169 5.89633 57.141 5.8255C58.1117 5.47137 59.2317 5.11723 60.0531 4.97558C59.9037 5.68385 59.5304 6.81707 59.157 7.73782C59.0824 7.9503 59.0824 8.23361 59.2317 8.44609C59.3811 8.7294 59.4557 8.94188 59.5304 9.22518C59.6797 9.57932 59.9784 9.7918 60.2771 9.86263L63.1145 10.2876C63.1892 10.7834 63.1892 11.2792 63.1145 11.8458Z" fill="white"/>
<path d="M53.5569 5.96729C52.1382 5.96729 50.7941 6.46307 49.8234 7.45464C47.7327 9.43778 47.7327 12.625 49.8234 14.6081C50.7941 15.5288 52.1382 16.0955 53.5569 16.0955C54.9757 16.0955 56.3197 15.5997 57.2904 14.6081C58.2611 13.6165 58.8585 12.4125 58.8585 11.0668C58.8585 9.72108 58.3358 8.44621 57.2904 7.52547C56.3197 6.46307 54.9757 5.96729 53.5569 5.96729ZM55.9464 13.2624C55.2743 13.8998 54.453 14.1831 53.5569 14.1831C52.6609 14.1831 51.8395 13.829 51.1675 13.2624C49.8234 11.9875 49.8234 10.0044 51.1675 8.72951C51.8395 8.09208 52.6609 7.80877 53.5569 7.80877C54.453 7.80877 55.2743 8.1629 55.9464 8.72951C56.6184 9.36695 56.9171 10.146 56.9171 10.996C56.9171 11.8459 56.6184 12.6958 55.9464 13.2624Z" fill="white"/>
<path d="M16.0725 25.6572H12.6377C12.115 25.6572 11.667 26.0822 11.667 26.578V29.8362C11.667 30.332 12.115 30.757 12.6377 30.757C13.1604 30.757 13.6084 30.332 13.6084 29.8362V27.4988H16.0725C16.5952 27.4988 17.0432 27.0738 17.0432 26.578C17.0432 26.0822 16.5952 25.6572 16.0725 25.6572Z" fill="white"/>
<path d="M15.5499 28.0654C15.1765 27.7113 14.5791 27.7113 14.2058 28.0654C13.8324 28.4195 13.8324 28.9861 14.2058 29.3403L16.5952 31.6067C16.8192 31.8192 17.0432 31.89 17.2673 31.89C17.4913 31.89 17.7899 31.8192 17.9393 31.6067C18.3126 31.2526 18.3126 30.686 17.9393 30.3318L15.5499 28.0654Z" fill="white"/>
<path d="M24.4358 22.3989C23.9131 22.3989 23.4651 22.8239 23.4651 23.3197V25.657H21.001C20.4783 25.657 20.0303 26.082 20.0303 26.5778C20.0303 27.0736 20.4783 27.4985 21.001 27.4985H24.4358C24.9585 27.4985 25.4065 27.0736 25.4065 26.5778V23.3197C25.4065 22.8239 24.9585 22.3989 24.4358 22.3989Z" fill="white"/>
<path d="M20.4781 21.5493C20.1047 21.1952 19.5074 21.1952 19.134 21.5493C18.7607 21.9035 18.7607 22.4701 19.134 22.8242L21.5235 25.1616C21.7475 25.3741 21.9715 25.4449 22.1955 25.4449C22.4195 25.4449 22.7182 25.3741 22.8675 25.1616C23.2409 24.8075 23.2409 24.2408 22.8675 23.8867L20.4781 21.5493Z" fill="white"/>
<path d="M44.1482 25.7277H41.6841V23.3905C41.6841 22.8947 41.2361 22.4697 40.7134 22.4697C40.1907 22.4697 39.7427 22.8947 39.7427 23.3905V26.6485C39.7427 27.1443 40.1907 27.5692 40.7134 27.5692H44.1482C44.6709 27.5692 45.1189 27.1443 45.1189 26.6485C45.1189 26.0819 44.6709 25.7277 44.1482 25.7277Z" fill="white"/>
<path d="M44.6709 21.5493L42.2815 23.8158C41.9081 24.1699 41.9081 24.7366 42.2815 25.0907C42.5055 25.3032 42.7295 25.374 42.9535 25.374C43.1775 25.374 43.4762 25.3032 43.6255 25.0907L46.015 22.8242C46.3883 22.4701 46.3883 21.9034 46.015 21.5493C45.6416 21.1952 45.0443 21.1952 44.6709 21.5493Z" fill="white"/>
</svg>
