<svg width="64" height="62" viewBox="0 0 64 62" fill="none" xmlns="http://www.w3.org/2000/svg">
<path d="M37.3659 61.0524C37.1707 61.0524 36.9756 60.9594 36.7805 60.8664L32.0976 58.1703L27.4146 60.8664C26.9268 61.1453 26.2439 61.0524 25.8537 60.5875L22.3415 56.4968L16.9756 57.5195C16.3902 57.6125 15.8049 57.3336 15.6098 56.7757L13.6585 51.6624L8.19512 50.8256C7.60976 50.7327 7.21952 50.2678 7.21952 49.71L7.31708 44.4107L2.53659 41.8075C1.95122 41.4357 1.7561 40.8778 1.95122 40.32L3.90244 35.2996L0.292683 31.2089C-0.097561 30.7441 -0.097561 30.1863 0.292683 29.7214L3.90244 25.7237L1.95122 20.7033C1.7561 20.1455 1.95122 19.5877 2.43903 19.3088L7.21952 16.7056L7.12195 11.4063C7.12195 10.8485 7.5122 10.3836 8.09756 10.2906L13.6585 9.36094L15.5122 4.34055C15.7073 3.78273 16.2927 3.50381 16.8781 3.59678L22.2439 4.52649L25.7561 0.435798C26.1464 -0.0290532 26.8293 -0.122023 27.3171 0.156887L32 2.85302L36.6829 0.156887C37.1707 -0.122023 37.8537 -0.0290532 38.2439 0.435798L41.7561 4.52649L47.122 3.59678C47.7073 3.50381 48.2927 3.78273 48.4878 4.34055L50.3415 9.36094L55.8049 10.1977C56.3903 10.2906 56.7805 10.7555 56.7805 11.3133L56.6829 16.6126L61.4634 19.2158C61.9512 19.4947 62.2439 20.0525 61.9512 20.6103L60 25.6307L63.6098 29.7214C64 30.1863 64 30.7441 63.6098 31.2089L60 35.2996L61.9512 40.32C62.1464 40.8778 61.9512 41.4357 61.4634 41.7146L56.6829 44.3177L56.7805 49.617C56.7805 50.1749 56.3903 50.6397 55.8049 50.7327L50.3415 51.5694L48.4878 56.5898C48.2927 57.1476 47.7073 57.4265 47.122 57.3336L41.7561 56.3109L38.2439 60.4016C38.0488 60.8664 37.6586 61.0524 37.3659 61.0524ZM32 55.6601C32.1951 55.6601 32.3903 55.7531 32.5854 55.846L37.0732 58.3562L40.3903 54.4515C40.6829 54.0796 41.1707 53.9866 41.561 54.0796L46.6342 55.0093L48.3903 50.2678C48.5854 49.8959 48.8781 49.617 49.3659 49.5241L54.439 48.6873L54.3415 43.6669C54.3415 43.2021 54.5366 42.8302 54.9268 42.6443L59.4147 40.227L57.561 35.4856C57.3659 35.1137 57.4634 34.6488 57.7561 34.3699L61.1708 30.5581L57.7561 26.7464C57.4634 26.4675 57.3659 26.0026 57.561 25.6307L59.4147 20.8892L54.9268 18.472C54.5366 18.2861 54.3415 17.9142 54.3415 17.4493L54.439 12.429L49.3659 11.5922C48.9756 11.4993 48.5854 11.2203 48.3903 10.8485L46.6342 6.10698L41.561 7.03668C41.1707 7.12965 40.6829 6.94371 40.3903 6.6648L37.0732 2.76005L32.5854 5.27025C32.1951 5.45619 31.7073 5.45619 31.3171 5.27025L26.8293 2.76005L23.6098 6.57183C23.3171 6.94371 22.9268 7.03668 22.439 6.94371L17.3659 6.01401L15.6098 10.7555C15.5122 11.1274 15.122 11.4063 14.6342 11.4993L9.56098 12.336L9.65854 17.3564C9.65854 17.7283 9.46342 18.1931 9.07317 18.379L4.58537 20.7963L6.43903 25.5378C6.63415 25.9096 6.53659 26.3745 6.24391 26.6534L2.82927 30.4652L6.24391 34.277C6.53659 34.5559 6.63415 35.0207 6.43903 35.3926L4.58537 40.1341L9.07317 42.5513C9.46342 42.7372 9.65854 43.1091 9.65854 43.574L9.56098 48.5944L14.6342 49.4311C15.0244 49.5241 15.4146 49.803 15.6098 50.1749L17.3659 54.9163L22.439 53.9866C22.8293 53.8937 23.3171 54.0796 23.6098 54.3585L26.9268 58.2633L31.4146 55.7531C31.5122 55.7531 31.8049 55.6601 32 55.6601Z" fill="white"/>
<path d="M32.0001 52.778C19.1221 52.778 8.58545 42.8302 8.58545 30.4651C8.58545 18.1931 19.0245 8.15234 32.0001 8.15234C44.9758 8.15234 55.3173 18.1001 55.3173 30.4651C55.3173 42.8302 44.8782 52.778 32.0001 52.778ZM32.0001 10.5696C20.4879 10.5696 11.0245 19.4947 11.0245 30.5581C11.0245 41.5286 20.3904 50.5467 32.0001 50.5467C43.5124 50.5467 52.9758 41.6215 52.9758 30.5581C52.9758 19.4947 43.5124 10.5696 32.0001 10.5696Z" fill="white"/>
<path d="M43.7073 42.6443H28.7804C27.5121 42.6443 26.439 41.6216 26.439 40.413V29.4424C26.439 28.1408 27.5121 26.9322 28.878 25.2588C30.1463 23.7712 31.5122 22.1907 32.0975 20.5172C32.2926 19.9594 32.0975 17.8211 31.7073 16.1476C31.6097 15.6828 31.8048 15.2179 32.2926 14.939C32.4878 14.846 33.3658 14.3812 35.2195 14.4741C37.561 14.5671 39.4146 16.8914 39.7073 20.3313C39.8049 21.7259 39.7073 23.0275 39.5122 23.9572H45.8537C46.0488 23.9572 46.2439 23.9572 46.439 24.0501C48.2927 24.329 49.6586 25.8166 49.6586 27.676C49.6586 28.4198 49.4634 29.0706 49.0732 29.7213C49.4634 30.2792 49.6586 31.0229 49.6586 31.6737C49.6586 32.4175 49.3659 33.1613 48.9756 33.8121C49.2683 34.2769 49.3659 34.8347 49.3659 35.3926C49.3659 36.6942 48.683 37.8098 47.6098 38.4606C47.6098 38.6465 47.7073 38.8325 47.7073 39.0184C47.7073 40.8778 46.2439 42.4583 44.2927 42.6443C44 42.5513 43.9024 42.6443 43.7073 42.6443ZM28.878 40.32H43.7073C44.4878 40.227 45.0732 39.6692 45.0732 39.0184C45.0732 38.8325 44.9756 38.5536 44.8781 38.3676C44.6829 38.0887 44.6829 37.6239 44.8781 37.345C45.0732 36.9731 45.3659 36.7871 45.7561 36.6942C46.439 36.6012 46.8293 36.0434 46.8293 35.3926C46.8293 35.0207 46.7317 34.7418 46.439 34.4629C46.2439 34.1839 46.0488 33.905 46.1464 33.5331C46.1464 33.2542 46.3415 32.8824 46.6342 32.6964C47.0244 32.4175 47.2195 32.0456 47.2195 31.5808C47.2195 31.1159 47.0244 30.744 46.6342 30.4651C46.3415 30.2792 46.1464 29.9073 46.1464 29.5354C46.1464 29.1635 46.3415 28.7916 46.6342 28.6057C47.0244 28.3268 47.2195 27.9549 47.2195 27.49C47.2195 26.8393 46.7317 26.2814 46.0488 26.1885H45.9512H38.0488C37.6585 26.1885 37.2683 26.0025 37.0732 25.7236C36.878 25.4447 36.7805 25.0728 36.878 24.7009C37.0732 24.0501 37.4634 22.3767 37.2683 20.4243C37.0732 18.1 36 16.7054 35.1219 16.7054C34.8292 16.7054 34.5366 16.7054 34.3414 16.7054C34.5366 18.1 34.8292 20.0524 34.439 21.168C33.7561 23.3064 32.1951 25.1658 30.8292 26.7463C30.0487 27.676 28.878 28.9776 28.878 29.4424V40.32Z" fill="white"/>
<path d="M22.4388 42.6442H19.1217C17.8534 42.6442 16.7803 41.6215 16.7803 40.4129V28.8846C16.7803 27.676 17.8534 26.6533 19.1217 26.6533H22.4388C23.7071 26.6533 24.7803 27.676 24.7803 28.8846V40.4129C24.7803 41.6215 23.7071 42.6442 22.4388 42.6442ZM19.2193 40.3199H22.3412V28.9776H19.2193V40.3199Z" fill="white"/>
</svg>
