<svg width="65" height="49" viewBox="0 0 65 49" fill="none" xmlns="http://www.w3.org/2000/svg">
<path d="M35.6077 31.6799C37.1044 30.3287 38.0498 28.2267 38.0498 26.0497C38.0498 22.2962 35.0562 19.2935 31.4325 19.2935C27.8087 19.2935 24.8152 22.3713 24.8152 26.0497C24.8152 28.2267 25.7605 30.3287 27.2573 31.6799C23.7911 33.6317 21.4277 37.7605 21.4277 41.4389C21.4277 48.1201 28.9116 48.1201 31.4325 48.1201C33.8746 48.1201 41.4372 48.1201 41.4372 41.4389C41.4372 37.7605 39.0739 33.6317 35.6077 31.6799ZM27.4148 26.0497C27.4148 23.6475 29.2267 21.6957 31.5112 21.6957C33.7958 21.6957 35.6077 23.6475 35.6077 26.0497C35.6077 28.0015 34.426 29.9533 32.8505 30.6289C32.4566 30.5539 31.9839 30.4788 31.5112 30.4788C31.0386 30.4788 30.6447 30.5539 30.172 30.6289C28.5965 29.9533 27.4148 28.0766 27.4148 26.0497ZM31.4325 45.6428C24.8939 45.6428 24.0274 43.616 24.0274 41.3639C24.0274 38.0608 26.5483 34.0821 29.9357 33.1813C30.4084 33.3314 30.9598 33.4065 31.4325 33.4065C31.9839 33.4065 32.4566 33.3314 32.9292 33.1813C36.3167 34.1572 38.8375 38.0608 38.8375 41.3639C38.9163 43.616 37.971 45.6428 31.4325 45.6428Z" fill="white"/>
<path d="M64.1248 18.092H54.514L47.8967 13.5877H53.0172C53.5686 13.5877 53.9625 13.2124 53.9625 12.6869V5.33C53.9625 4.8045 53.5686 4.42915 53.0172 4.42915H36.789C36.2376 4.42915 35.8437 4.8045 35.8437 5.33V8.48295L22.294 16.3653V15.0141C22.294 14.4886 21.9001 14.1132 21.3487 14.1132H15.7555L15.3616 9.90929H27.8084C28.3599 9.90929 28.7537 9.53394 28.7537 9.00845V0.900845C28.8325 0.375352 28.3599 0 27.8872 0H1.96943C1.49677 0 1.02411 0.375352 1.02411 0.900845V9.00845C1.02411 9.53394 1.41799 9.90929 1.96943 9.90929H13.4709L13.8648 14.1132H7.3263C6.77486 14.1132 6.38097 14.4886 6.38097 15.0141V20.8696C6.38097 21.3951 6.77486 21.7704 7.3263 21.7704H12.1317L8.03529 25.9744H0.945329C0.393887 25.9744 0 26.3497 0 26.8752V35.6584C0 36.1839 0.393887 36.5593 0.945329 36.5593H16.0706C16.622 36.5593 17.0159 36.1839 17.0159 35.6584V31.9049L23.003 30.1783C23.4757 30.0282 23.7908 29.5027 23.6332 29.0522C23.4757 28.6018 22.9242 28.3015 22.4516 28.4517L17.0159 30.0282V26.8752C17.0159 26.3497 16.622 25.9744 16.0706 25.9744H10.7137L14.8101 21.7704H21.4275C21.9789 21.7704 22.3728 21.3951 22.3728 20.8696V18.4673L35.9225 10.5849V12.6869C35.9225 13.2124 36.3164 13.5877 36.8678 13.5877H44.6668L51.2841 18.092H44.3517C43.8002 18.092 43.4063 18.4673 43.4063 18.9928V22.0707L39.3099 23.422C38.8373 23.5721 38.5221 24.0976 38.7585 24.548C38.916 24.9234 39.2311 25.1486 39.625 25.1486C39.7038 25.1486 39.8614 25.1486 39.9401 25.0735L43.4063 23.9475V26.2746C43.4063 26.8001 43.8002 27.1755 44.3517 27.1755H52.9384L51.7567 30.929H47.1877C46.6362 30.929 46.2423 31.3044 46.2423 31.8298V33.1811L40.6491 30.0282C40.1765 29.8029 39.625 29.9531 39.3099 30.3284C39.0736 30.7789 39.2311 31.3043 39.625 31.6046L46.1636 35.2831V37.6853C46.1636 38.2108 46.5574 38.5862 47.1089 38.5862H57.7438C58.2953 38.5862 58.6892 38.2108 58.6892 37.6853V31.8298C58.6892 31.3044 58.2953 30.929 57.7438 30.929H53.7262L54.9078 27.1755H64.046C64.5975 27.1755 64.9913 26.8001 64.9913 26.2746V18.9928C65.0701 18.4673 64.5975 18.092 64.1248 18.092ZM15.1253 27.776V34.7576H1.89066V27.776H15.1253ZM2.91476 8.1076V1.80169H26.8631V8.1076H2.91476ZM20.4033 19.9687H8.27163V15.9149H20.4033V19.9687ZM37.8131 11.7861V6.23084H52.1506V11.7861H37.8131ZM56.8773 32.7307V36.7845H48.133V32.7307H56.8773ZM63.1007 25.3738H45.297V19.8937H63.1795V25.3738H63.1007Z" fill="white"/>
</svg>
