<svg width="1191" height="249" viewBox="0 0 1191 249" fill="none" xmlns="http://www.w3.org/2000/svg">
<g opacity="0.1">
<path d="M0 0H40.12V119H0V0Z" fill="#B7B7B7"/>
<path d="M176.734 0V119H143.754L98.5336 64.94V119H59.4336V0H92.4136L137.634 54.06V0H176.734Z" fill="#B7B7B7"/>
<path d="M221.904 31.11H187.054V0H296.874V31.11H262.024V119H221.904V31.11Z" fill="#B7B7B7"/>
<path d="M406.235 88.74V119H307.295V0H404.025V30.26H346.735V44.2H397.055V73.1H346.735V88.74H406.235Z" fill="#B7B7B7"/>
<path d="M472.68 89.08H461.8V119H421.68V0H478.97C489.963 0 499.54 1.81333 507.7 5.44C515.86 9.06667 522.15 14.28 526.57 21.08C530.99 27.88 533.2 35.8133 533.2 44.88C533.2 53.38 531.273 60.8033 527.42 67.15C523.566 73.4967 518.013 78.54 510.76 82.28L535.75 119H492.91L472.68 89.08ZM492.74 44.88C492.74 40.46 491.38 37.06 488.66 34.68C485.94 32.1867 481.86 30.94 476.42 30.94H461.8V58.82H476.42C481.86 58.82 485.94 57.63 488.66 55.25C491.38 52.7567 492.74 49.3 492.74 44.88Z" fill="#B7B7B7"/>
<path d="M57.29 127C68.2833 127 77.86 128.813 86.02 132.44C94.18 136.067 100.47 141.28 104.89 148.08C109.31 154.88 111.52 162.813 111.52 171.88C111.52 180.947 109.31 188.88 104.89 195.68C100.47 202.48 94.18 207.693 86.02 211.32C77.86 214.947 68.2833 216.76 57.29 216.76H40.12V246H0V127H57.29ZM54.74 185.82C60.18 185.82 64.26 184.63 66.98 182.25C69.7 179.757 71.06 176.3 71.06 171.88C71.06 167.46 69.7 164.06 66.98 161.68C64.26 159.187 60.18 157.94 54.74 157.94H40.12V185.82H54.74Z" fill="#B7B7B7"/>
<path d="M175.678 216.08H164.798V246H124.678V127H181.968C192.961 127 202.538 128.813 210.698 132.44C218.858 136.067 225.148 141.28 229.568 148.08C233.988 154.88 236.198 162.813 236.198 171.88C236.198 180.38 234.271 187.803 230.418 194.15C226.564 200.497 221.011 205.54 213.758 209.28L238.748 246H195.908L175.678 216.08ZM195.738 171.88C195.738 167.46 194.378 164.06 191.658 161.68C188.938 159.187 184.858 157.94 179.418 157.94H164.798V185.82H179.418C184.858 185.82 188.938 184.63 191.658 182.25C194.378 179.757 195.738 176.3 195.738 171.88Z" fill="#B7B7B7"/>
<path d="M313.738 248.72C300.931 248.72 289.428 246.057 279.228 240.73C269.028 235.403 261.038 228.037 255.258 218.63C249.478 209.11 246.588 198.4 246.588 186.5C246.588 174.6 249.478 163.947 255.258 154.54C261.038 145.02 269.028 137.597 279.228 132.27C289.428 126.943 300.931 124.28 313.738 124.28C326.544 124.28 338.048 126.943 348.248 132.27C358.448 137.597 366.438 145.02 372.218 154.54C377.998 163.947 380.888 174.6 380.888 186.5C380.888 198.4 377.998 209.11 372.218 218.63C366.438 228.037 358.448 235.403 348.248 240.73C338.048 246.057 326.544 248.72 313.738 248.72ZM313.738 216.25C318.724 216.25 323.201 215.06 327.168 212.68C331.248 210.187 334.478 206.73 336.858 202.31C339.238 197.777 340.428 192.507 340.428 186.5C340.428 180.493 339.238 175.28 336.858 170.86C334.478 166.327 331.248 162.87 327.168 160.49C323.201 157.997 318.724 156.75 313.738 156.75C308.751 156.75 304.218 157.997 300.138 160.49C296.171 162.87 292.998 166.327 290.618 170.86C288.238 175.28 287.048 180.493 287.048 186.5C287.048 192.507 288.238 197.777 290.618 202.31C292.998 206.73 296.171 210.187 300.138 212.68C304.218 215.06 308.751 216.25 313.738 216.25Z" fill="#B7B7B7"/>
<path d="M419.629 158.11H384.779V127H494.599V158.11H459.749V246H419.629V158.11Z" fill="#B7B7B7"/>
<path d="M603.96 215.74V246H505.02V127H601.75V157.26H544.46V171.2H594.78V200.1H544.46V215.74H603.96Z" fill="#B7B7B7"/>
<path d="M680.944 248.72C668.364 248.72 657.031 246.113 646.944 240.9C636.858 235.573 628.924 228.207 623.144 218.8C617.478 209.28 614.644 198.513 614.644 186.5C614.644 174.487 617.478 163.777 623.144 154.37C628.924 144.85 636.858 137.483 646.944 132.27C657.031 126.943 668.364 124.28 680.944 124.28C692.504 124.28 702.818 126.32 711.884 130.4C720.951 134.48 728.431 140.373 734.324 148.08L708.994 170.69C701.628 161.397 692.958 156.75 682.984 156.75C674.598 156.75 667.854 159.47 662.754 164.91C657.654 170.237 655.104 177.433 655.104 186.5C655.104 195.567 657.654 202.82 662.754 208.26C667.854 213.587 674.598 216.25 682.984 216.25C692.958 216.25 701.628 211.603 708.994 202.31L734.324 224.92C728.431 232.627 720.951 238.52 711.884 242.6C702.818 246.68 692.504 248.72 680.944 248.72Z" fill="#B7B7B7"/>
<path d="M804.958 248.72C792.378 248.72 781.045 246.113 770.958 240.9C760.871 235.573 752.938 228.207 747.158 218.8C741.491 209.28 738.658 198.513 738.658 186.5C738.658 174.487 741.491 163.777 747.158 154.37C752.938 144.85 760.871 137.483 770.958 132.27C781.045 126.943 792.378 124.28 804.958 124.28C816.518 124.28 826.831 126.32 835.898 130.4C844.965 134.48 852.445 140.373 858.338 148.08L833.008 170.69C825.641 161.397 816.971 156.75 806.998 156.75C798.611 156.75 791.868 159.47 786.768 164.91C781.668 170.237 779.118 177.433 779.118 186.5C779.118 195.567 781.668 202.82 786.768 208.26C791.868 213.587 798.611 216.25 806.998 216.25C816.971 216.25 825.641 211.603 833.008 202.31L858.338 224.92C852.445 232.627 844.965 238.52 835.898 242.6C826.831 246.68 816.518 248.72 804.958 248.72Z" fill="#B7B7B7"/>
<path d="M869.922 127H910.042V246H869.922V127Z" fill="#B7B7B7"/>
<path d="M991.745 248.72C978.939 248.72 967.435 246.057 957.235 240.73C947.035 235.403 939.045 228.037 933.265 218.63C927.485 209.11 924.595 198.4 924.595 186.5C924.595 174.6 927.485 163.947 933.265 154.54C939.045 145.02 947.035 137.597 957.235 132.27C967.435 126.943 978.939 124.28 991.745 124.28C1004.55 124.28 1016.06 126.943 1026.26 132.27C1036.46 137.597 1044.45 145.02 1050.23 154.54C1056.01 163.947 1058.9 174.6 1058.9 186.5C1058.9 198.4 1056.01 209.11 1050.23 218.63C1044.45 228.037 1036.46 235.403 1026.26 240.73C1016.06 246.057 1004.55 248.72 991.745 248.72ZM991.745 216.25C996.732 216.25 1001.21 215.06 1005.18 212.68C1009.26 210.187 1012.49 206.73 1014.87 202.31C1017.25 197.777 1018.44 192.507 1018.44 186.5C1018.44 180.493 1017.25 175.28 1014.87 170.86C1012.49 166.327 1009.26 162.87 1005.18 160.49C1001.21 157.997 996.732 156.75 991.745 156.75C986.759 156.75 982.225 157.997 978.145 160.49C974.179 162.87 971.005 166.327 968.625 170.86C966.245 175.28 965.055 180.493 965.055 186.5C965.055 192.507 966.245 197.777 968.625 202.31C971.005 206.73 974.179 210.187 978.145 212.68C982.225 215.06 986.759 216.25 991.745 216.25ZM996.335 90.11H1032.89L999.395 117.31H973.895L996.335 90.11Z" fill="#B7B7B7"/>
<path d="M1190.76 127V246H1157.78L1112.56 191.94V246H1073.46V127H1106.44L1151.66 181.06V127H1190.76Z" fill="#B7B7B7"/>
</g>
</svg>
