<svg width="116" height="34" viewBox="0 0 116 34" fill="none" xmlns="http://www.w3.org/2000/svg">
<path d="M33.2156 12.4341C33.5928 12.4341 33.8813 12.2977 34.1253 12.025C34.3694 11.775 34.5025 11.4569 34.5025 11.0706C34.5025 10.6842 34.3694 10.3661 34.1253 10.0934C33.8813 9.8434 33.5706 9.70705 33.2156 9.68433C32.8384 9.68433 32.55 9.82068 32.3059 10.0934C32.0618 10.3434 31.9287 10.6842 31.9287 11.0706C31.9287 11.4569 32.0618 11.775 32.3059 12.025C32.55 12.275 32.8384 12.4114 33.2156 12.4341ZM32.4834 10.2752C32.6609 10.0707 32.905 9.97975 33.2156 9.95703C33.5041 9.95703 33.7481 10.0707 33.9478 10.2752C34.1475 10.4797 34.2363 10.7297 34.2363 11.0706C34.2363 11.3887 34.1475 11.6614 33.9478 11.8432C33.7481 12.0477 33.5263 12.1614 33.2156 12.1614C32.9272 12.1614 32.6831 12.0477 32.4834 11.8432C32.2837 11.6387 32.195 11.3887 32.195 11.0706C32.195 10.7297 32.3059 10.4797 32.4834 10.2752Z" fill="#1A9ECA"/>
<path d="M32.9718 11.1615H33.1271L33.5487 11.7978H33.8594L33.4156 11.1388C33.5265 11.116 33.6153 11.0933 33.6819 11.0251C33.7484 10.957 33.7928 10.8433 33.7928 10.6843C33.7928 10.3661 33.6153 10.207 33.2825 10.207H32.7056V11.7978H32.9496V11.1615H32.9718ZM32.9718 10.4797H33.2159C33.3047 10.4797 33.3934 10.5025 33.46 10.5252C33.5265 10.5479 33.5709 10.6161 33.5709 10.707C33.5709 10.7979 33.5265 10.8661 33.46 10.8888C33.3712 10.9115 33.2825 10.9342 33.1715 10.9115H32.994V10.4797H32.9718Z" fill="#1A9ECA"/>
<path d="M19.2371 1.07153C18.5271 0.344321 17.3955 0.344321 16.6855 1.07153L12.8247 5.02571H23.0979L19.2371 1.07153Z" fill="#1A9ECA"/>
<path d="M35.4125 17.6156L34.1478 16.3203L24.2962 6.2303C24.0522 5.98033 23.7193 5.8667 23.3865 5.91215C22.3659 6.0485 21.6558 6.25303 21.2565 6.57118C20.6796 7.02569 20.3911 8.00287 20.3911 9.57091V28.2738C20.3911 29.8872 20.6796 30.9099 21.2565 31.2962C21.6558 31.5689 22.3659 31.7734 23.3865 31.9098C23.7193 31.9552 24.0522 31.8416 24.2962 31.5916L35.3903 20.229C36.1226 19.5245 36.1226 18.3428 35.4125 17.6156Z" fill="#1A9ECA"/>
<path d="M11.6266 31.5916C11.8707 31.8416 12.2035 31.9552 12.5363 31.9098C13.557 31.7734 14.2892 31.5689 14.6664 31.2962C15.2433 30.9099 15.5318 29.91 15.5318 28.2738V9.57091C15.5318 8.02559 15.2433 7.02569 14.6664 6.57118C14.267 6.27575 13.557 6.0485 12.5363 5.91215C12.2035 5.8667 11.8707 5.98033 11.6266 6.2303L0.532517 17.6156C-0.177506 18.3428 -0.177506 19.5018 0.532517 20.229L11.6266 31.5916Z" fill="#1A9ECA"/>
<path d="M39.6948 9.84345C39.6948 8.79809 40.5158 7.97998 41.5143 7.97998C42.5349 7.97998 43.3337 8.82081 43.3337 9.84345C43.3337 10.8888 42.5127 11.7069 41.5143 11.7069C40.4936 11.7069 39.6948 10.8661 39.6948 9.84345ZM39.9167 13.0023H43.1118V23.274H39.9167V13.0023Z" fill="#1A9ECA"/>
<path d="M52.231 17.3427C52.231 16.0928 51.5875 15.6383 50.5891 15.6383C49.635 15.6383 49.0137 16.161 48.6365 16.6382V23.274H45.4414V13.0022H48.6365V14.2521C49.2356 13.5249 50.4338 12.7522 52.0979 12.7522C54.3833 12.7522 55.4261 14.1157 55.4261 16.0019V23.274H52.231V17.3427Z" fill="#1A9ECA"/>
<path d="M58.4219 20.5243V15.8656H56.7578V13.0023H58.4219V10.1843H61.5948V13.0023H63.6361V15.8429H61.5948V19.6153C61.5948 20.2061 61.9277 20.6606 62.4824 20.6606C62.8374 20.6606 63.1924 20.5243 63.3033 20.4107L63.9246 22.8877C63.5252 23.274 62.7486 23.5695 61.5505 23.5695C59.5313 23.5467 58.4219 22.5014 58.4219 20.5243Z" fill="#1A9ECA"/>
<path d="M69.9372 12.7522C72.9104 12.7522 75.0627 14.9793 75.0627 18.4789V19.1834H67.918C68.0955 20.1379 68.9831 21.0242 70.4697 21.0242C71.3572 21.0242 72.3557 20.6606 72.9326 20.1606L74.2861 22.2059C73.2876 23.1149 71.6235 23.5694 70.0925 23.5694C66.9861 23.5694 64.612 21.5014 64.612 18.1608C64.5898 15.1611 66.7864 12.7522 69.9372 12.7522ZM67.8737 17.0473H72.0007C71.9119 16.3201 71.4016 15.2747 69.915 15.2747C68.5393 15.2747 67.9846 16.2973 67.8737 17.0473Z" fill="#1A9ECA"/>
<path d="M76.6384 13.0022H79.8335V14.2975C80.4992 13.4794 81.7639 12.7522 82.9621 12.7522V15.9337C82.7624 15.8655 82.4961 15.8201 82.1633 15.8201C81.3423 15.8201 80.2329 16.1837 79.8113 16.7746V23.2967H76.6162V13.0022H76.6384Z" fill="#1A9ECA"/>
<path d="M84.2265 19.5471C85.2915 19.5471 86.1791 20.4561 86.1791 21.5469C86.1791 22.6378 85.2915 23.5468 84.2265 23.5468C83.1615 23.5468 82.2739 22.6378 82.2739 21.5469C82.2739 20.4561 83.1615 19.5471 84.2265 19.5471Z" fill="#1A9ECA"/>
<path d="M100.867 17.0245C100.867 16.2292 100.49 15.6383 99.5362 15.6383C98.6709 15.6383 98.0496 16.2064 97.739 16.6382V23.274H94.5439V17.0245C94.5439 16.2292 94.1888 15.6383 93.2126 15.6383C92.3694 15.6383 91.7481 16.2064 91.4153 16.6382V23.274H88.2202V13.0022H91.4153V14.2521C91.8591 13.6612 93.146 12.7522 94.7214 12.7522C96.1636 12.7522 97.1621 13.3658 97.5615 14.5929C98.1383 13.7067 99.4474 12.7522 101.023 12.7522C102.864 12.7522 104.04 13.7294 104.04 15.8428V23.2967H100.867V17.0245Z" fill="#1A9ECA"/>
<path d="M110.564 20.1836L108.611 23.297H105.105L108.545 18.002L105.327 13.0024H108.833L110.564 15.7976L112.272 13.0024H115.778L112.583 18.002L116 23.297H112.494L110.564 20.1836Z" fill="#1A9ECA"/>
<path d="M40.2275 27.4548H40.5604V29.2047C40.8266 28.8411 41.2038 28.5911 41.6698 28.5911C42.5129 28.5911 43.0898 29.2729 43.0898 30.2955C43.0898 31.3408 42.5129 31.9999 41.6698 31.9999C41.2038 31.9999 40.7822 31.7272 40.5604 31.409V31.9317H40.2275V27.4548ZM41.6032 31.6817C42.3132 31.6817 42.7126 31.0909 42.7126 30.2955C42.7126 29.5001 42.3132 28.9092 41.6032 28.9092C41.1594 28.9092 40.7379 29.182 40.5604 29.5001V31.0909C40.7379 31.409 41.1594 31.6817 41.6032 31.6817Z" fill="#1A9ECA"/>
<path d="M44.0659 32.9095C44.2878 32.9095 44.4209 32.8186 44.554 32.5232L44.7981 31.9551L43.4668 28.6826H43.844L44.9978 31.5005L46.1516 28.6826H46.5288L44.8868 32.6368C44.7093 33.0459 44.4431 33.2504 44.0659 33.2504C43.9549 33.2504 43.8218 33.2277 43.7331 33.2049L43.7996 32.8868C43.8662 32.9095 43.9993 32.9095 44.0659 32.9095Z" fill="#1A9ECA"/>
<path d="M47.2836 28.6372C47.4389 28.6372 47.572 28.7736 47.572 28.9326C47.572 29.0917 47.4389 29.2281 47.2836 29.2281C47.1282 29.2281 46.9951 29.0917 46.9951 28.9326C46.9951 28.7736 47.1282 28.6372 47.2836 28.6372ZM47.2836 31.387C47.4389 31.387 47.572 31.5233 47.572 31.6824C47.572 31.8415 47.4389 31.9778 47.2836 31.9778C47.1282 31.9778 46.9951 31.8415 46.9951 31.6824C46.9951 31.5233 47.1282 31.387 47.2836 31.387Z" fill="#1A9ECA"/>
<path d="M50.2344 27.4548H50.6116V31.9317H50.2344V27.4548Z" fill="#1A9ECA"/>
<path d="M52.0759 28.0684V31.9317H51.6987V27.4548H52.0759L54.8051 31.2727V27.4548H55.1823V31.9317H54.8051L52.0759 28.0684Z" fill="#1A9ECA"/>
<path d="M57.379 27.7957H55.959V27.4548H59.1985V27.7957H57.7784V31.909H57.4012V27.7957H57.379Z" fill="#1A9ECA"/>
<path d="M59.9751 27.4548H62.7486V27.7957H60.3523V29.4547H62.7042V29.7955H60.3523V31.5681H62.7486V31.909H59.9751V27.4548Z" fill="#1A9ECA"/>
<path d="M64.9895 30.0692H64.0354V31.91H63.6582V27.4331H65.278C66.0324 27.4331 66.6093 27.9331 66.6093 28.7512C66.6093 29.5693 66.0545 30.0011 65.3889 30.0465L66.6536 31.9327H66.2099L64.9895 30.0692ZM65.2558 27.7967H64.0354V29.7284H65.2558C65.8327 29.7284 66.232 29.3193 66.232 28.7739C66.232 28.2285 65.8327 27.7967 65.2558 27.7967Z" fill="#1A9ECA"/>
<path d="M67.541 33.1595V28.6827H67.8738V29.2054C68.0957 28.8645 68.4951 28.6145 68.9832 28.6145C69.8264 28.6145 70.4033 29.2735 70.4033 30.3189C70.4033 31.3415 69.8264 32.0233 68.9832 32.0233C68.5395 32.0233 68.1401 31.796 67.8738 31.4097V33.1595H67.541ZM68.9167 28.9099C68.4729 28.9099 68.0513 29.1826 67.8738 29.5008V31.0916C68.0513 31.4097 68.4729 31.6824 68.9167 31.6824C69.6267 31.6824 70.0261 31.0688 70.0261 30.2962C70.0261 29.5235 69.6267 28.9099 68.9167 28.9099Z" fill="#1A9ECA"/>
<path d="M71.269 28.6827H71.6019V29.2281C71.8681 28.8645 72.2231 28.6145 72.6669 28.6145V29.0008C72.6003 29.0008 72.556 28.9781 72.4894 28.9781C72.1788 28.9781 71.735 29.2735 71.6019 29.5462V31.9097H71.269V28.6827Z" fill="#1A9ECA"/>
<path d="M73.1548 30.2962C73.1548 29.3417 73.7539 28.5918 74.6636 28.5918C75.5955 28.5918 76.1946 29.3417 76.1946 30.2962C76.1946 31.2506 75.5955 32.0006 74.6636 32.0006C73.7539 32.0006 73.1548 31.2506 73.1548 30.2962ZM75.8396 30.2962C75.8396 29.569 75.418 28.91 74.6858 28.91C73.9536 28.91 73.532 29.569 73.532 30.2962C73.532 31.0234 73.9536 31.6824 74.6858 31.6824C75.418 31.6824 75.8396 31.0234 75.8396 30.2962Z" fill="#1A9ECA"/>
<path d="M77.1487 31.297V29.0018H76.6162V28.6836H77.1487V27.7974H77.5037V28.6836H78.1472V29.0018H77.5037V31.2516C77.5037 31.5243 77.6147 31.6834 77.8366 31.6834C77.9919 31.6834 78.125 31.6152 78.1916 31.5243L78.3247 31.797C78.1916 31.9106 78.0585 32.0015 77.7922 32.0015C77.3484 32.0015 77.1487 31.7515 77.1487 31.297Z" fill="#1A9ECA"/>
<path d="M80.2107 28.5918C81.1647 28.5918 81.6973 29.3872 81.6973 30.3189V30.4098H79.0569C79.0791 31.1143 79.545 31.7052 80.2772 31.7052C80.6766 31.7052 81.0538 31.5461 81.3201 31.2506L81.4976 31.4779C81.1869 31.8188 80.7876 32.0006 80.255 32.0006C79.3231 32.0006 78.6797 31.2961 78.6797 30.2962C78.7019 29.3645 79.3453 28.5918 80.2107 28.5918ZM79.0569 30.1371H81.3644C81.3644 29.5917 81.0094 28.91 80.2107 28.91C79.4563 28.91 79.1013 29.569 79.0569 30.1371Z" fill="#1A9ECA"/>
<path d="M83.9382 28.5918C84.4707 28.5918 84.8036 28.819 85.0476 29.1372L84.8036 29.3417C84.5595 29.0236 84.2932 28.8872 83.9382 28.8872C83.206 28.8872 82.7401 29.5008 82.7401 30.2735C82.7401 31.0461 83.1838 31.6597 83.9382 31.6597C84.2932 31.6597 84.5595 31.5234 84.8036 31.2052L85.0476 31.4097C84.8036 31.7506 84.4707 31.9551 83.9382 31.9551C83.0063 31.9551 82.4072 31.2052 82.4072 30.2507C82.4072 29.3645 83.0063 28.5918 83.9382 28.5918Z" fill="#1A9ECA"/>
<path d="M87.1775 28.5918C87.71 28.5918 88.0428 28.819 88.2869 29.1372L88.0428 29.3417C87.7987 29.0236 87.5325 28.8872 87.1775 28.8872C86.4453 28.8872 85.9793 29.5008 85.9793 30.2735C85.9793 31.0461 86.4231 31.6597 87.1775 31.6597C87.5325 31.6597 87.7987 31.5234 88.0428 31.2052L88.2869 31.4097C88.0428 31.7506 87.71 31.9551 87.1775 31.9551C86.2456 31.9551 85.6465 31.2052 85.6465 30.2507C85.6465 29.3645 86.2456 28.5918 87.1775 28.5918Z" fill="#1A9ECA"/>
<path d="M88.9526 27.8645C88.9526 27.7281 89.0858 27.5918 89.2189 27.5918C89.352 27.5918 89.4852 27.7054 89.4852 27.8645C89.4852 28.0236 89.3742 28.1372 89.2189 28.1372C89.0858 28.1372 88.9526 28.0236 88.9526 27.8645ZM89.0414 28.6826H89.3742V31.9096H89.0414V28.6826Z" fill="#1A9ECA"/>
<path d="M90.2622 30.2962C90.2622 29.3417 90.8613 28.5918 91.771 28.5918C92.7029 28.5918 93.2798 29.3417 93.2798 30.2962C93.2798 31.2506 92.7029 32.0006 91.771 32.0006C90.8613 32.0006 90.2622 31.2506 90.2622 30.2962ZM92.947 30.2962C92.947 29.569 92.5254 28.9099 91.7932 28.9099C91.061 28.9099 90.6394 29.569 90.6394 30.2962C90.6394 31.0234 91.061 31.6824 91.7932 31.6824C92.5254 31.6824 92.947 31.0234 92.947 30.2962ZM91.6379 28.1827L92.6363 27.2283H93.0357L91.9041 28.1827H91.6379Z" fill="#1A9ECA"/>
<path d="M96.319 29.728C96.319 29.0917 96.0084 28.9099 95.5424 28.9099C95.1431 28.9099 94.7215 29.1826 94.5218 29.4553V31.9097H94.189V28.6827H94.5218V29.1826C94.7437 28.9099 95.2096 28.6145 95.6534 28.6145C96.2968 28.6145 96.6519 28.9327 96.6519 29.6599V31.9324H96.319V29.728Z" fill="#1A9ECA"/>
</svg>
